<?xml version="1.0" encoding="UTF-8"?><svg xmlns="http://www.w3.org/2000/svg" xmlns:xlink="http://www.w3.org/1999/xlink" height="62.0" preserveAspectRatio="xMidYMid meet" version="1.0" viewBox="0.0 0.0 62.0 62.0" width="62.0" zoomAndPan="magnify"><g id="change1_1"><path d="M 38 32 L 60 32 L 60 2 L 38 2 Z M 61 34 L 37 34 C 36.449219 34 36 33.550781 36 33 L 36 1 C 36 0.449219 36.449219 0 37 0 L 61 0 C 61.550781 0 62 0.449219 62 1 L 62 33 C 62 33.550781 61.550781 34 61 34" fill="inherit"/><path d="M 33 39 C 32.449219 39 32 39.449219 32 40 L 32 59 C 32 59.550781 32.449219 60 33 60 L 59 60 C 59.550781 60 60 59.550781 60 59 L 60 40 C 60 39.449219 59.550781 39 59 39 Z M 59 62 L 33 62 C 31.34375 62 30 60.65625 30 59 L 30 40 C 30 38.34375 31.34375 37 33 37 L 59 37 C 60.65625 37 62 38.34375 62 40 L 62 59 C 62 60.65625 60.65625 62 59 62" fill="inherit"/><path d="M 56 57 L 36 57 C 35.449219 57 35 56.550781 35 56 C 35 55.449219 35.449219 55 36 55 L 56 55 C 56.550781 55 57 55.449219 57 56 C 57 56.550781 56.550781 57 56 57" fill="inherit"/><path d="M 3 5 C 2.449219 5 2 5.449219 2 6 L 2 30 C 2 30.550781 2.449219 31 3 31 L 29 31 C 29.550781 31 30 30.550781 30 30 L 30 6 C 30 5.449219 29.550781 5 29 5 Z M 29 33 L 3 33 C 1.34375 33 0 31.65625 0 30 L 0 6 C 0 4.34375 1.34375 3 3 3 L 29 3 C 30.65625 3 32 4.34375 32 6 L 32 30 C 32 31.65625 30.65625 33 29 33" fill="inherit"/><path d="M 20 10 C 18.898438 10 18 10.898438 18 12 C 18 13.101562 18.898438 14 20 14 C 21.101562 14 22 13.101562 22 12 C 22 10.898438 21.101562 10 20 10 Z M 20 16 C 17.792969 16 16 14.207031 16 12 C 16 9.792969 17.792969 8 20 8 C 22.207031 8 24 9.792969 24 12 C 24 14.207031 22.207031 16 20 16" fill="inherit"/><path d="M 27 25 C 26.742188 25 26.488281 24.902344 26.292969 24.707031 L 23 21.414062 L 19.707031 24.707031 C 19.316406 25.097656 18.683594 25.097656 18.292969 24.707031 L 12 18.414062 L 5.707031 24.707031 C 5.316406 25.097656 4.683594 25.097656 4.292969 24.707031 C 3.902344 24.316406 3.902344 23.683594 4.292969 23.292969 L 11.292969 16.292969 C 11.683594 15.902344 12.316406 15.902344 12.707031 16.292969 L 19 22.585938 L 22.292969 19.292969 C 22.683594 18.902344 23.316406 18.902344 23.707031 19.292969 L 27.707031 23.292969 C 28.097656 23.683594 28.097656 24.316406 27.707031 24.707031 C 27.511719 24.902344 27.257812 25 27 25" fill="inherit"/><path d="M 52 7 L 42 7 C 41.449219 7 41 6.550781 41 6 C 41 5.449219 41.449219 5 42 5 L 52 5 C 52.550781 5 53 5.449219 53 6 C 53 6.550781 52.550781 7 52 7" fill="inherit"/><path d="M 56 16 L 42 16 C 41.449219 16 41 15.550781 41 15 C 41 14.449219 41.449219 14 42 14 L 56 14 C 56.550781 14 57 14.449219 57 15 C 57 15.550781 56.550781 16 56 16" fill="inherit"/><path d="M 56 25 L 42 25 C 41.449219 25 41 24.550781 41 24 C 41 23.449219 41.449219 23 42 23 L 56 23 C 56.550781 23 57 23.449219 57 24 C 57 24.550781 56.550781 25 56 25" fill="inherit"/><path d="M 47 29 L 42 29 C 41.449219 29 41 28.550781 41 28 C 41 27.449219 41.449219 27 42 27 L 47 27 C 47.550781 27 48 27.449219 48 28 C 48 28.550781 47.550781 29 47 29" fill="inherit"/><path d="M 44 12 L 42 12 C 41.449219 12 41 11.550781 41 11 C 41 10.449219 41.449219 10 42 10 L 44 10 C 44.550781 10 45 10.449219 45 11 C 45 11.550781 44.550781 12 44 12" fill="inherit"/><path d="M 56 12 L 49 12 C 48.449219 12 48 11.550781 48 11 C 48 10.449219 48.449219 10 49 10 L 56 10 C 56.550781 10 57 10.449219 57 11 C 57 11.550781 56.550781 12 56 12" fill="inherit"/><path d="M 49 21 L 42 21 C 41.449219 21 41 20.550781 41 20 C 41 19.449219 41.449219 19 42 19 L 49 19 C 49.550781 19 50 19.449219 50 20 C 50 20.550781 49.550781 21 49 21" fill="inherit"/><path d="M 56 21 L 54 21 C 53.449219 21 53 20.550781 53 20 C 53 19.449219 53.449219 19 54 19 L 56 19 C 56.550781 19 57 19.449219 57 20 C 57 20.550781 56.550781 21 56 21" fill="inherit"/><path d="M 14 38 C 7.382812 38 2 42.039062 2 47 C 2 49.070312 2.925781 51.027344 4.679688 52.65625 C 4.886719 52.847656 5 53.113281 5 53.390625 L 5 58.585938 L 8.125 55.460938 C 8.394531 55.191406 8.792969 55.101562 9.152344 55.222656 C 10.660156 55.738281 12.289062 56 14 56 C 20.617188 56 26 51.960938 26 47 C 26 42.039062 20.617188 38 14 38 Z M 4 62 C 3.871094 62 3.742188 61.976562 3.617188 61.921875 C 3.242188 61.769531 3 61.40625 3 61 L 3 53.8125 C 1.0625 51.871094 0 49.46875 0 47 C 0 40.933594 6.28125 36 14 36 C 21.71875 36 28 40.933594 28 47 C 28 53.066406 21.71875 58 14 58 C 12.292969 58 10.652344 57.769531 9.105469 57.308594 L 4.707031 61.707031 C 4.515625 61.898438 4.261719 62 4 62" fill="inherit"/><path d="M 16 47 C 16 45.894531 15.105469 45 14 45 C 12.894531 45 12 45.894531 12 47 C 12 48.105469 12.894531 49 14 49 C 15.105469 49 16 48.105469 16 47" fill="inherit"/><path d="M 23 47 C 23 45.894531 22.105469 45 21 45 C 19.894531 45 19 45.894531 19 47 C 19 48.105469 19.894531 49 21 49 C 22.105469 49 23 48.105469 23 47" fill="inherit"/><path d="M 9 47 C 9 45.894531 8.105469 45 7 45 C 5.894531 45 5 45.894531 5 47 C 5 48.105469 5.894531 49 7 49 C 8.105469 49 9 48.105469 9 47" fill="inherit"/><path d="M 53 58 C 52.449219 58 52 57.550781 52 57 L 52 55 C 52 54.449219 52.449219 54 53 54 C 53.550781 54 54 54.449219 54 55 L 54 57 C 54 57.550781 53.550781 58 53 58" fill="inherit"/><path d="M 43.175781 43.003906 C 43.144531 43.003906 43.113281 43.011719 43.089844 43.023438 C 43.03125 43.054688 43 43.113281 43 43.171875 L 43 50.832031 C 43 50.894531 43.03125 50.949219 43.085938 50.980469 C 43.140625 51.011719 43.210938 51.011719 43.265625 50.980469 L 49.910156 47.152344 C 49.964844 47.121094 49.996094 47.0625 49.996094 47.003906 C 49.996094 46.941406 49.964844 46.886719 49.910156 46.851562 L 43.265625 43.027344 C 43.234375 43.011719 43.207031 43.003906 43.175781 43.003906 Z M 43.175781 53 C 42.800781 53 42.421875 52.90625 42.089844 52.714844 C 41.417969 52.328125 41 51.605469 41 50.832031 L 41 43.171875 C 41 42.398438 41.417969 41.679688 42.089844 41.292969 C 42.757812 40.90625 43.59375 40.90625 44.261719 41.292969 L 50.910156 45.121094 C 51.582031 45.507812 51.996094 46.226562 51.996094 47.003906 C 51.996094 47.777344 51.582031 48.496094 50.910156 48.886719 L 44.261719 52.714844 C 43.925781 52.90625 43.550781 53 43.175781 53" fill="inherit"/></g></svg>