<?xml version="1.0" encoding="UTF-8" standalone="no"?><svg xmlns="http://www.w3.org/2000/svg" xmlns:xlink="http://www.w3.org/1999/xlink" fill="#000000" height="529.5" preserveAspectRatio="xMidYMid meet" version="1" viewBox="0.0 0.0 535.9 529.5" width="535.9" zoomAndPan="magnify"><g id="change1_1"><path d="M187.7,44.2c-79.2,0-143.6,64.4-143.6,143.6c0,79.2,64.4,143.6,143.6,143.6c79.2,0,143.6-64.4,143.6-143.6 C331.3,108.6,266.9,44.2,187.7,44.2z M187.7,309.2c-67,0-121.5-54.5-121.5-121.5S120.8,66.3,187.7,66.3s121.5,54.5,121.5,121.5 S254.7,309.2,187.7,309.2z M510.3,417.4L421.9,329c-15.6-15.6-38.3-19.4-59.4-15c-0.4-0.6-0.8-1.1-1.3-1.6l-18.6-18.6 c20.8-30.2,32.9-66.7,32.9-106.1C375.5,84.2,291.3,0,187.7,0S0,84.2,0,187.7s84.2,187.7,187.7,187.7c36.5,0,70.6-10.5,99.4-28.5 l22.9,22.9c-0.2,1.9-0.2,3.8-0.2,5.7c0,17.5,6.8,34,19.2,46.5l88.3,88.3c12.8,12.8,29.6,19.2,46.5,19.2s33.7-6.4,46.5-19.2 C535.9,484.7,535.9,443,510.3,417.4z M22.1,187.7c0-91.3,74.3-165.6,165.6-165.6c91.3,0,165.6,74.3,165.6,165.6 c0,91.3-74.3,165.6-165.6,165.6C96.4,353.4,22.1,279.1,22.1,187.7z M305.4,333.9c8.5-6.8,16.3-14.4,23.5-22.6l11,11 c-3.5,1.8-8.1,4.7-12.7,9.3c-5.2,5.1-8.4,10.2-10.3,13.9C313.1,341.7,309.2,337.8,305.4,333.9z M494.7,494.7c-17,17-44.7,17-61.7,0 l-88.3-88.3c-0.4-0.4-0.8-0.8-1.2-1.2c-22-23.8-8.8-62.2,22.8-69.3c2.5-0.6,5-1,7.5-1.2c13.3-1.2,24.9,2.4,32.6,10.1l88.3,88.3 C511.7,450,511.7,477.7,494.7,494.7z M222.6,175.6c12.4-10.1,20.3-25.5,20.3-42.8c0-30.4-24.8-55.2-55.2-55.2 c-30.4,0-55.2,24.8-55.2,55.2c0,17.2,7.9,32.6,20.3,42.8c-18.8,11.7-31.4,32.6-31.4,56.3V265c0,6.1,4.9,11,11,11H243 c6.1,0,11-4.9,11-11v-33.1C254,208.2,241.4,187.3,222.6,175.6z M154.6,132.8c0-18.3,14.9-33.1,33.1-33.1c18.3,0,33.1,14.9,33.1,33.1 c0,17-12.9,31.1-29.5,32.9c-1.2-0.1-2.4-0.1-3.6-0.1s-2.4,0-3.6,0.1C167.5,163.9,154.6,149.9,154.6,132.8z M231.9,254h-88.3v-22.1 c0-23.1,17.8-42.1,40.5-44c1.2,0.1,2.5,0.1,3.7,0.1s2.5-0.1,3.7-0.1c22.6,1.9,40.5,20.9,40.5,44V254z" fill="#000000"/></g></svg>