<?xml version="1.0" encoding="UTF-8"?><svg xmlns="http://www.w3.org/2000/svg" xmlns:xlink="http://www.w3.org/1999/xlink" fill="none" height="35.5" preserveAspectRatio="xMidYMid meet" style="fill: none;" version="1.0" viewBox="4.3 6.3 39.4 35.5" width="39.4" zoomAndPan="magnify"><circle cx="19" cy="15" r="8" stroke="#000" stroke-linecap="round" stroke-linejoin="round" stroke-width="1.5"/><path d="M19.5 41L7 41C5.89543 41 4.99059 40.1028 5.08954 39.0027C5.24048 37.3246 5.58118 35.6778 6.10375 34.1117C6.83244 31.9278 7.9005 29.9435 9.24695 28.2721C10.5934 26.6006 12.1919 25.2748 13.9511 24.3702C15.7103 23.4656 17.5958 23 19.5 23C21.4042 23 23.2897 23.4656 25.0489 24.3702C26.8081 25.2748 28.4066 26.6006 29.753 28.2721C31.0995 29.9435 32.1676 31.9278 32.8963 34.1117C33.4188 35.6778 33.7595 37.3246 33.9105 39.0027C34.0094 40.1028 33.1046 41 32 41H26.75" stroke="#000" stroke-linecap="round" stroke-linejoin="round" stroke-width="1.5"/><path d="M31 10H43M31 15H43M31 20H39.3636" stroke="#000" stroke-linecap="round" stroke-width="1.5"/></svg>