<?xml version="1.0" encoding="UTF-8"?><svg xmlns="http://www.w3.org/2000/svg" xmlns:xlink="http://www.w3.org/1999/xlink" height="180.0" preserveAspectRatio="xMidYMid meet" version="1.0" viewBox="0.0 -0.1 180.0 180.0" width="180.0" zoomAndPan="magnify"><g id="change1_1"><path d="M177.2,101.3h-5.6v-8.4c0-23.3-18.9-42.2-42.2-42.2S87.2,69.5,87.2,92.8v8.4h-5.6c-1.6,0-2.8,1.3-2.8,2.8v73.1 c0,1.6,1.3,2.8,2.8,2.8h95.6c1.6,0,2.8-1.3,2.8-2.8v-73.1C180,102.5,178.7,101.3,177.2,101.3z M92.8,92.8 c0-20.2,16.4-36.6,36.6-36.6s36.6,16.4,36.6,36.6v8.4h-11.2v-8.4c0-14-11.3-25.3-25.3-25.3s-25.3,11.3-25.3,25.3v8.4H92.8V92.8z M149.1,101.3h-39.4v-8.4c0-10.9,8.8-19.7,19.7-19.7s19.7,8.8,19.7,19.7V101.3z M174.4,174.4h-90v-67.5h90V174.4z" fill="inherit"/><path d="M120.5,145.8l-5.1,16.5c-0.2,0.8-0.1,1.8,0.4,2.5c0.5,0.8,1.4,1.2,2.4,1.2h22.5c0.9,0,1.7-0.4,2.2-1.2 c0.5-0.7,0.7-1.6,0.4-2.5l-5-16.5c6-4.9,6.9-13.8,2-19.8c-4.9-6-13.8-6.9-19.8-2c-6,4.9-6.9,13.8-2,19.8 C119.1,144.6,119.7,145.2,120.5,145.8z M129.4,126.6c4.7,0,8.4,3.8,8.4,8.4c0,3-1.6,5.8-4.2,7.3c-1.2,0.6-1.8,2-1.4,3.3l4.6,14.8 h-14.9l4.6-14.8c0.4-1.3-0.2-2.6-1.3-3.3c-2.6-1.5-4.3-4.2-4.3-7.3C120.9,130.3,124.7,126.6,129.4,126.6z" fill="inherit"/><path d="M87.2,75.9c0-12.4-10.1-22.5-22.5-22.5h-5.6c-3.1,0-5.6-2.5-5.6-5.6c0-3.1,2.5-5.6,5.6-5.6h19.7c4.7,0,8.4-3.8,8.4-8.4 s-3.8-8.4-8.4-8.4h-8.4v-8.4c0-1.6-1.3-2.8-2.8-2.8H56.2c-1.6,0-2.8,1.3-2.8,2.8V26c-12,3.1-19.2,15.4-16.1,27.5 c2.6,9.9,11.5,16.8,21.7,16.8h5.6c3.1,0,5.6,2.5,5.6,5.6s-2.5,5.6-5.6,5.6H45c-4.7,0-8.4,3.8-8.4,8.4c0,4.7,3.8,8.4,8.4,8.4h8.4 v8.4c0,1.6,1.3,2.8,2.8,2.8h11.2c1.6,0,2.8-1.3,2.8-2.8v-9.2C80.2,95.1,87.2,86.2,87.2,75.9z M67.1,92.6c-1.4,0.2-2.4,1.4-2.4,2.8 v8.6h-5.6v-8.4c0-1.6-1.3-2.8-2.8-2.8H45c-1.6,0-2.8-1.3-2.8-2.8s1.3-2.8,2.8-2.8h19.7c6.2,0,11.2-5,11.2-11.2s-5-11.2-11.2-11.2 h-5.6c-9.3-0.1-16.8-7.7-16.7-17c0.1-8.3,6.1-15.3,14.3-16.5c1.4-0.2,2.4-1.4,2.4-2.8v-8.6h5.6v8.4c0,1.6,1.3,2.8,2.8,2.8h11.2 c1.6,0,2.8,1.3,2.8,2.8c0,1.6-1.3,2.8-2.8,2.8H59.1c-6.2,0-11.2,5-11.2,11.2s5,11.2,11.2,11.2h5.6c9.3,0.1,16.8,7.7,16.7,17 C81.3,84.4,75.3,91.4,67.1,92.6z" fill="inherit"/><path d="M61.9,118.1c-31.1,0-56.2-25.2-56.2-56.3S30.8,5.6,61.9,5.6c24.8,0,46.6,16.4,53.4,40.2c0.5,1.6,2.1,2.4,3.6,2 c1.6-0.5,2.4-2.1,2-3.6C113.3,17.9,89.2-0.1,61.9,0C27.7,0,0,27.7,0,61.9s27.7,61.9,61.9,61.9c1.6,0,2.8-1.3,2.8-2.8 S63.4,118.1,61.9,118.1z" fill="inherit"/></g></svg>