<?xml version="1.0" encoding="UTF-8" standalone="no"?><svg xmlns="http://www.w3.org/2000/svg" xmlns:xlink="http://www.w3.org/1999/xlink" fill="#000" height="497.9" preserveAspectRatio="xMidYMid meet" version="1" viewBox="1.0 7.0 510.0 497.9" width="510" zoomAndPan="magnify"><g id="change1_1"><path d="M338.85,269.56c-0.02-0.11-0.06-0.22-0.09-0.33c18.75-9.07,14.63-35.47,4.79-50.01c-5.39-7.5-13.47-12.72-18.14-20.79 c-6-10.36-3.78-22.27-7.15-33.27c-2.83-9.23-7.95-17.69-14.68-24.58c-20.48-21.89-57.16-24.74-79.6-4.22 c-12.75,11.08-18.6,25.8-20.04,42.36c-0.53,6.13-0.72,12.48-3.37,18.03c-4.08,8.56-12.81,13.38-18.38,20.77 c-10.55,14.72-15.81,42.15,3.71,51.75c-0.19,0.03-20.57,94.19-20.71,94.27c-3.27,13.06,7.7,26.78,21.17,26.42c0,0,151.91,0,151.91,0 c6.63,0,12.81-2.97,16.97-8.15c4.14-5.17,5.7-11.83,4.26-18.25L338.85,269.56z M315.87,203.34c5.45,10.3,17.02,15.85,21.47,26.95 c3.91,9.01,7.72,23.59-2.92,29.36c-6.1-9.52-23.76-13-33.44-17.05c-1.85-0.76-4.94-1.84-6.82-2.57c-2.45-0.41-4.89-0.84-7.4-0.56 l-1.16-5.71c12.91-10.43,19.91-26.63,19.12-43.26c2.24,0.6,4.47,1.27,6.73,1.82C312.39,196.17,313.87,199.86,315.87,203.34z M256.16,260.67c-0.23,0.63-1.97,7.4-2.39,7.73c-1.07,1.44-3.33,1.72-4.52,0.02c0,0-13.9-18.42-13.9-18.42 c1.39-0.09,2.82,0.23,4.04,0.91C239.38,250.91,256.16,260.67,256.16,260.67z M230.55,193.67v-9.82 c14.14-3.24,27.67-8.78,40.04-16.35c6.49,7.77,14.46,14.25,23.54,18.76v7.42c0.71,18.67-18.31,45.22-38.97,37.72 C240.37,225.13,230.45,209.7,230.55,193.67z M247.99,243.66l0.7-3.54c8.48,4.46,18.93,4.5,27.38-0.06l0.73,3.6l-14.4,8.39 L247.99,243.66z M285.41,250.91c1.21-0.71,2.66-0.99,4.04-0.94l-13.93,18.46c-1.33,1.7-3.39,1.37-4.48-0.01 c-0.41-0.27-2.19-7.17-2.41-7.74L285.41,250.91z M292.71,143.76c10.58,9.09,17.46,23.21,17.46,37.24 c-11.6-3.21-23.55-10.33-31.18-20.04C280.57,159.37,293.79,144.63,292.71,143.76z M230.94,144.36 c14.36-12.71,36.02-15.47,52.99-6.56c-14.18,24.11-42.63,34.79-69.24,37.91C215.91,163.63,221.68,152.41,230.94,144.36z M183.35,248.24c0.03-12.89,5.64-24.66,15.79-33.07c8.6-7.27,13.83-17.43,15.05-28.72c1.92-0.21,3.85-0.45,5.77-0.67 c-1.38,18.13,4.64,36.64,19.19,48.05l-1.14,5.73c-2.8-0.36-5.66-0.12-8.31,0.85l-27.17,9.87c-4.93,1.87-9.14,5.23-12.3,9.4 C186.09,257.43,183.35,253.06,183.35,248.24z M346.97,375.19c-2.13,2.66-5.3,4.19-8.7,4.19H313.9v-30.23c0-2.93-2.37-5.3-5.3-5.3 s-5.3,2.37-5.3,5.3v30.23h-81.81v-30.23c0-2.93-2.37-5.3-5.3-5.3c-2.93,0-5.3,2.37-5.3,5.3v30.23h-24.53 c-6.89,0.17-12.5-6.84-10.82-13.54c0,0,20.67-94.16,20.67-94.16c0.23-1.1,0.61-2.2,1.16-3.3c1.76-3.8,4.91-6.7,8.82-8.16l18.52-6.73 l16.07,21.29c5.09,7.27,16.69,7.03,21.62-0.24c4.88,7.26,16.55,7.51,21.61,0.26c0,0,16.04-21.26,16.04-21.26l18.35,6.66 c4.99,1.83,8.89,6.26,10.08,11.54c0,0,20.67,94.12,20.67,94.12C349.88,369.14,349.09,372.55,346.97,375.19z M483.52,83.42h-63.58 V29.25c0-12.24-9.96-22.2-22.2-22.2H127c-12.27,0-22.25,9.96-22.25,22.2v68.93H32.21C15,98.19,1,112.18,1,129.39v80.85 c0,17.21,14,31.21,31.21,31.21h69.85l2.69,2.19v239.04c0,12.27,9.98,22.25,22.25,22.25h270.75c12.24,0,22.2-9.98,22.2-22.25V210.85 l4.05-3.31h59.53c15.15,0,27.48-12.33,27.48-27.48v-69.17C511,95.74,498.67,83.42,483.52,83.42z M115.34,29.25 c0-6.4,5.23-11.6,11.66-11.6h270.75c6.4,0,11.6,5.21,11.6,11.6V83.4h-12.98V35.93c0-2.93-2.37-5.3-5.3-5.3h-72.64 c-6.67,0.29-5.17,7.46-5.3,11.98c0,2.92-2.4,5.3-5.36,5.3h-90.87c-2.92,0-5.3-2.38-5.3-5.3v-6.68c0-2.93-2.37-5.3-5.3-5.3h-72.69 c-2.93,0-5.3,2.37-5.3,5.3c0,0,0,62.26,0,62.26h-12.98V29.25z M363.83,163.44c-1.47,18.67,0.5,38.31,21.94,43.53v8.67l-3.12,8.88 l-2.04,5.81c-1.3,3.35,1.59,7.33,5.16,7.03v213.34H138.92V271.54c1.1,0.77,4.6,4.08,5.88,4.4c4.02,1.52,8.38-2.63,6.8-6.74 c0,0-9.77-27.81-9.77-27.81c16.32-0.98,29.31-14.58,29.31-31.15v-80.85c0.03-17.58-14.66-31.75-32.21-31.21V41.23h62.1 c-0.66,9.22,6.57,17.32,15.9,17.27c0,0,90.86,0,90.86,0c9.35,0.04,16.62-8.05,15.95-17.27h62.04v42.75 c-13.79,2.75-21.85,15.57-21.94,28.94C363.4,129.73,363.83,146.62,363.83,163.44z M107.3,232.05c-0.95-0.77-2.13-1.2-3.35-1.2H32.21 c-11.36,0-20.61-9.25-20.61-20.61v-80.85c0-11.37,9.25-20.61,20.61-20.61h107.72c11.36,0,20.61,9.25,20.61,20.61v80.85 c0,11.37-9.25,20.61-20.61,20.61c0,0-5.56,0-5.56,0c-3.55-0.1-6.26,3.75-5,7.06c0,0,5.98,17.02,5.98,17.02L107.3,232.05z M409.35,482.69c0,6.43-5.21,11.66-11.6,11.66H127c-6.43,0-11.66-5.23-11.66-11.66V252.3l12.98,10.6v193.1c0,2.93,2.37,5.3,5.3,5.3 h257.45c2.93,0,5.3-2.37,5.3-5.3V230.14l12.98-10.62V482.69z M500.4,180.07c0,9.31-7.57,16.88-16.88,16.88h-61.42 c-1.22,0-2.41,0.42-3.35,1.2c-6.07,4.95-15.77,12.9-21.88,17.89L401.1,204c1.08-2.85-0.78-6.26-3.74-6.9 c-0.89-0.28-5.06-0.11-6.04-0.15c-9.09,0-16.93-7.47-16.88-16.88c0,0,0-69.17,0-69.17c-0.14-9.14,7.87-16.93,16.88-16.88 c0,0,92.21,0,92.21,0c9.31,0,16.88,7.57,16.88,16.88V180.07z M454.69,107.87c-6.56,0-12.71,2.61-17.27,7.31 c-22.85-22.4-56.35,10.65-34.3,33.82c0,0,30.57,30.57,30.57,30.57c1.97,2.05,5.52,2.05,7.49,0c0,0,30.55-30.57,30.55-30.57 C486.94,134.67,475.52,107.24,454.69,107.87z M464.24,141.5l-26.8,26.82l-26.82-26.82c-2.55-2.55-3.95-5.93-3.95-9.53 c-0.41-11.63,15.1-18.12,23.04-9.53c0,0,3.99,3.99,3.99,3.99c1.97,2.06,5.54,2.05,7.5-0.01c0,0,3.97-3.99,3.97-3.99 C458.1,110.42,476.48,128.51,464.24,141.5z M180.09,94.88c2.11,1.18,7.26,2.7,8.19,5.22c1.61,2.97,3.07,9,7.48,8.69 c6.16,0.19,5.48-9.06,10.01-11.2c0,0,5.67-2.7,5.67-2.7c3.96-1.73,3.96-7.83,0-9.57c-2.11-1.19-7.26-2.7-8.19-5.22 c-1.61-2.97-3.07-9-7.48-8.69c-4.41-0.31-5.87,5.7-7.48,8.68c-0.91,2.51-6.11,4.03-8.19,5.22 C176.12,87.04,176.12,93.14,180.09,94.88z M195.75,87.92c0.66,0.79,1.38,1.52,2.17,2.17c-0.79,0.65-1.52,1.38-2.17,2.17 c-0.65-0.79-1.38-1.52-2.17-2.17C194.37,89.44,195.1,88.71,195.75,87.92z M260.16,418.49c-2.11-1.18-7.26-2.7-8.19-5.22 c-1.61-2.97-3.07-9-7.48-8.69c-6.16-0.19-5.48,9.07-10.01,11.21c0,0-5.67,2.7-5.67,2.7c-3.96,1.73-3.96,7.83,0,9.56 c2.12,1.19,7.26,2.7,8.19,5.23c1.61,2.97,3.07,9,7.48,8.68c4.41,0.31,5.87-5.7,7.48-8.68c0.91-2.52,6.11-4.04,8.19-5.23 C264.12,426.33,264.13,420.22,260.16,418.49z M244.49,425.45c-0.66-0.79-1.38-1.52-2.18-2.17c0.79-0.65,1.52-1.38,2.18-2.17 c0.65,0.79,1.38,1.52,2.17,2.17C245.87,423.93,245.14,424.66,244.49,425.45z M317.53,132.1c2.11,1.18,7.27,2.69,8.18,5.22 c1.61,2.97,3.07,9,7.49,8.69c6.16,0.19,5.48-9.05,10-11.21c0,0,5.67-2.7,5.67-2.7c3.96-1.73,3.97-7.84,0-9.57 c-2.12-1.19-7.26-2.69-8.19-5.22c-1.61-2.97-3.07-9-7.48-8.69c-4.41-0.31-5.87,5.72-7.49,8.7c-0.9,2.51-6.11,4.03-8.18,5.21 C313.57,124.27,313.56,130.37,317.53,132.1z M333.2,125.15c0.65,0.79,1.38,1.52,2.17,2.17c-0.79,0.65-1.52,1.38-2.17,2.17 c-0.65-0.79-1.38-1.52-2.17-2.17C331.82,126.67,332.55,125.94,333.2,125.15z M134.58,188.43c3.23-5.41-1.26-12.89-3.04-18.01 c14.98-14.62,4.76-40.79-16.07-41.48l-3.45-8.9c-4.82-12.57-24.6-7.67-23.28,5.58l-31.1,23l-8.4,3.25 c-28.66,11.89-14.79,54.27,15.08,47l19.55,26.68c1.01,1.38,2.61,2.17,4.27,2.17c0.44,0,0.9-0.06,1.33-0.17l18.27-4.76 c2.99-0.71,4.78-4.2,3.61-7.04c0,0-5.08-13.1-5.08-13.1c-1.97-5.34-8.68-2.64-12.68-2.19l-7.2-6.75l27.62-2.85 C119.14,197.91,131.1,196.37,134.58,188.43z M64.44,187.75c-17.83,7.85-29.29-18.32-11.37-25.99c0,0,4.12-1.6,4.12-1.6 c2.55,6.59,7.69,19.84,10.24,26.43L64.44,187.75z M88.24,209.96c2.26,2.53,6.9,0.83,9.69,0.51l1.38,3.55l-9.03,2.35l-10.56-14.4 L88.24,209.96z M77.77,183.93l-11.15-28.77l25.65-18.97l17.23,44.47L77.77,183.93z M125.03,183.86c-0.39,1.06-2.47,1.32-2.77,0.35 c0,0-22.95-59.24-22.95-59.24c-0.11-0.28-0.03-0.57,0.06-0.75c0.27-0.83,2.27-1.49,2.78-0.35c2.42,6.24,7.3,18.83,9.72,25.09 c0,0,13.23,34.15,13.23,34.15C125.2,183.39,125.11,183.67,125.03,183.86z M126.95,158.57l-0.5-1.28l-6.39-16.5 c3.34,1.49,5.88,4.11,7.17,7.44C128.55,151.62,128.38,155.29,126.95,158.57z"/></g></svg>