<?xml version="1.0" encoding="UTF-8"?><svg xmlns="http://www.w3.org/2000/svg" xmlns:xlink="http://www.w3.org/1999/xlink" height="95.5" preserveAspectRatio="xMidYMid meet" version="1.0" viewBox="0.0 -0.0 85.3 95.5" width="85.3" zoomAndPan="magnify"><g data-name="40" id="change1_1"><path d="M50.737,0H33.571a.673.673,0,0,0-.566,1.038l8.772,13.583a.674.674,0,0,0,1.138-.011l8.4-13.583A.673.673,0,0,0,50.737,0Zm-13.2,2.832h9.33L42.3,10.214ZM64.78,34.862a9.061,9.061,0,1,0-8.92-9.07A9.167,9.167,0,0,0,64.78,34.862Zm.3-15.1a6.041,6.041,0,1,1-6.18,6.05A6.037,6.037,0,0,1,65.08,19.762Zm14.79,39.76c.03-4.92.06-11.78.07-12.62a9.1,9.1,0,0,0-8.99-9.01q-6.15-.015-12.3.01a9.025,9.025,0,0,0-8.24,5.57,8.746,8.746,0,0,0-1.63-.16q-6.15-.015-12.3.01a8.734,8.734,0,0,0-1.54.14h-.01a9.1,9.1,0,0,0-8.28-5.57q-6.15-.015-12.3.01a8.97,8.97,0,0,0-8.73,7.26,33.469,33.469,0,0,0-.21,4.14l-.04,10.27C1.95,63.052,0,67.052,0,71.312c0,13.33,19.13,24.18,42.65,24.18s42.64-10.85,42.64-24.18C85.29,67.032,83.32,63.012,79.87,59.522ZM58.84,40.912q5.61-.015,11.21,0a10.7,10.7,0,0,1,2.12.16,5.962,5.962,0,0,1,4.72,5.97c.01.71.01,1.79.01,3.09l-.02,6.77-.01,3.73-.03,7.91H57.69c.01-.35.01-.83.01-1.22.07-7.85.17-12.51-.21-15.64a11.933,11.933,0,0,0-.77-3.19,7.371,7.371,0,0,0-1.3-2.11,9.4,9.4,0,0,0-2.18-1.84A6.03,6.03,0,0,1,58.84,40.912ZM32.67,47.8a.435.435,0,0,1,.07-.06,5.813,5.813,0,0,1,2.89-1.31,5.1,5.1,0,0,1,1.04-.1q5.61-.015,11.21,0a12.048,12.048,0,0,1,1.9.12,1.7,1.7,0,0,1,.22.04,5.733,5.733,0,0,1,2.57,1.25.27.27,0,0,1,.08.07.156.156,0,0,1,.08.06,5.888,5.888,0,0,1,1.76,2.92,2.334,2.334,0,0,1,.03.31c.12,2.17.14,14.6.14,15.14,0,.56.01,1.35.01,2.3v5.41H30.5v-7.73c0-.53.12-12.97.26-15.12a2.316,2.316,0,0,1,.03-.3,5.788,5.788,0,0,1,1.8-2.94A.555.555,0,0,1,32.67,47.8ZM8.39,60.672l.01-3.75.02-6.78c0-1.31,0-2.39.01-3.12a6.04,6.04,0,0,1,6.11-6.11q5.61-.015,11.21,0a10.7,10.7,0,0,1,2.12.16,5.794,5.794,0,0,1,4.2,3.45,9,9,0,0,0-3.37,3.42,6.361,6.361,0,0,0-.3.58,8.525,8.525,0,0,0-.65,2.06c0,.02-.01.43-.02,1.11-.03,3.32-.08,12.95-.09,13.06-.17,1.23-.11,2.5-.16,3.75v.04H8.36Zm34.26,31.82C20.79,92.492,3,82.992,3,71.312a12.7,12.7,0,0,1,2.35-7.18v7.42H27.48v5.42H57.63c.01-1.81.02-3.62.04-5.42H79.8l.03-4.02c.01-1.02.02-2.03.02-3.05V64a12.739,12.739,0,0,1,2.44,7.31C82.29,82.992,64.51,92.492,42.65,92.492ZM20.484,34.865a9.061,9.061,0,1,0-8.92-9.07A9.165,9.165,0,0,0,20.484,34.865Zm.3-15.1a6.041,6.041,0,1,1-6.19,6.05A6.044,6.044,0,0,1,20.784,19.765Zm12.794,11.44a9.073,9.073,0,1,0,9.05-9.05A9.077,9.077,0,0,0,33.578,31.205Zm15.11.01a6.035,6.035,0,1,1-5.89-6.03A6.027,6.027,0,0,1,48.688,31.215Z"/></g></svg>