<?xml version="1.0" encoding="UTF-8"?><svg xmlns="http://www.w3.org/2000/svg" xmlns:xlink="http://www.w3.org/1999/xlink" clip-rule="evenodd" fill-rule="evenodd" height="167.9" image-rendering="optimizeQuality" preserveAspectRatio="xMidYMid meet" shape-rendering="geometricPrecision" text-rendering="geometricPrecision" version="1.0" viewBox="7.8 56.1 264.4 167.9" width="264.4" zoomAndPan="magnify"><g id="change1_1"><path d="M227.548 62.982l-26.387 15.677c9.41,8.582 16.74,18.399 22.752,29.036 6.025,10.662 10.708,22.109 14.832,33.947l26.519 -15.758c-4.125,-11.974 -8.784,-23.515 -14.785,-34.134 -6.003,-10.621 -13.371,-20.365 -22.931,-28.768zm-173.885 -6.248l31.768 18.874c1.423,0.842 1.896,2.678 1.054,4.102 -0.217,0.369 -0.502,0.673 -0.829,0.908 -1.021,0.864 -2.018,1.742 -2.991,2.635 2.091,2.313 4.362,3.647 7.302,4.395 3.806,0.968 8.808,1.074 15.783,0.997 3.877,-3.906 6.906,-6.08 13.181,-7.79 3.568,-0.973 8.118,-1.751 12.863,-2.316 5.261,-0.627 10.901,-1.008 15.775,-1.115 4.582,-0.1 8.441,0.051 11.878,0.37 3.517,0.327 6.518,0.81 9.361,1.371 1.208,0.239 2.547,0.527 3.875,0.813 4.088,0.88 8.083,1.739 12.371,1.88 2.816,0.092 5.873,-0.113 8.637,-0.404 0.484,-0.051 0.965,-0.106 1.439,-0.163 -0.26,-0.225 -0.522,-0.449 -0.786,-0.673 -0.327,-0.235 -0.612,-0.539 -0.83,-0.908 -0.841,-1.424 -0.369,-3.26 1.055,-4.102l31.768 -18.874 0.004 0.007c1.061,-0.627 2.445,-0.552 3.442,0.286 10.946,9.212 19.233,19.998 25.899,31.793 6.59,11.661 11.574,24.262 15.977,37.284 0.544,1.35 0.035,2.931 -1.256,3.694l-31.768 18.877 -0.002 -0.004c-0.178,0.105 -0.369,0.193 -0.573,0.261 -1.566,0.524 -3.261,-0.32 -3.785,-1.886l-0.379 -1.116c-2.179,2.409 -4.482,4.557 -6.939,6.481 -2.639,2.068 -5.442,3.874 -8.445,5.466 2.397,2.885 3.22,6.356 2.856,9.709 -0.217,2.011 -0.879,3.976 -1.893,5.733 -1.021,1.77 -2.394,3.327 -4.027,4.51 -2.269,1.645 -5.022,2.607 -8.029,2.486 0.063,0.552 0.095,1.113 0.095,1.681 0,4.067 -1.648,7.75 -4.314,10.415 -2.664,2.665 -6.347,4.314 -10.414,4.314 -1.047,0 -2.075,-0.113 -3.072,-0.328 -0.05,2.423 -0.757,4.779 -1.987,6.829 -1.276,2.127 -3.117,3.919 -5.373,5.103 -1.883,0.989 -4.037,1.561 -6.372,1.561 -1.207,0 -2.382,-0.159 -3.504,-0.456 -0.29,2.106 -1.092,4.098 -2.296,5.807 -1.534,2.176 -3.731,3.899 -6.363,4.822 -1.365,0.479 -2.826,0.742 -4.348,0.742 -3.435,0 -9.903,-0.525 -17.08,-2.077 -4.316,-0.933 -8.905,-2.239 -13.275,-4.028l-2.838 3.544 0.005 0.005c-2.495,3.115 -6.037,4.927 -9.73,5.336 -3.686,0.408 -7.535,-0.589 -10.656,-3.087l-0.007 -0.006 -0.005 0.006c-2.788,-2.234 -4.533,-5.305 -5.161,-8.573 -1.574,0.84 -3.286,1.348 -5.054,1.544 -3.646,0.404 -7.517,-0.55 -10.837,-2.683 -0.359,-0.23 -0.688,-0.464 -0.988,-0.701 -2.996,-2.359 -4.48,-5.722 -4.743,-9.202 -0.026,-0.353 -0.039,-0.708 -0.041,-1.063 -0.948,0.297 -1.924,0.499 -2.907,0.608 -3.819,0.422 -7.805,-0.57 -10.765,-2.799 -0.08,-0.061 -0.009,-0.013 -0.294,-0.241l-0.006 0.007c-3.216,-2.562 -4.861,-6.143 -5.155,-9.798 -0.196,-2.425 0.215,-4.894 1.165,-7.12 -3.212,0.023 -6.457,-1.013 -9.158,-3.174 -3.124,-2.502 -4.941,-6.042 -5.348,-9.73 -0.408,-3.686 0.589,-7.535 3.088,-10.657l0.976 -1.219c-0.703,-1.681 -1.407,-3.096 -2.403,-4.475 -0.752,-1.041 -1.701,-2.114 -2.974,-3.329 -0.753,1.002 -2.088,1.458 -3.341,1.039 -0.203,-0.068 -0.394,-0.156 -0.572,-0.261l-0.002 0.004 -31.768 -18.877c-1.291,-0.763 -1.8,-2.344 -1.256,-3.694 4.402,-13.022 9.387,-25.623 15.977,-37.284 6.666,-11.795 14.953,-22.581 25.899,-31.793 0.997,-0.838 2.381,-0.913 3.441,-0.286l0.005 -0.007zm24.704 30.706c-6.802,7.037 -12.361,14.84 -17.077,23.185 -5.514,9.757 -9.894,20.292 -13.769,31.227 2.533,2.199 4.257,4.041 5.584,5.878 0.671,0.93 1.227,1.833 1.721,2.759l3.881 -4.847 -0.005 -0.005c2.493,-3.114 6.033,-4.924 9.724,-5.332 3.683,-0.408 7.531,0.587 10.651,3.084l0.015 0.012 0.004 -0.006 0.017 0.014 0.004 -0.005 0.135 0.118c2.393,1.971 3.994,4.568 4.756,7.368l0.735 -0.923c4.868,-6.108 10.695,-7.691 15.677,-6.496 2.029,0.487 3.892,1.435 5.476,2.728 1.576,1.288 2.887,2.915 3.818,4.767 1.79,3.558 2.224,7.941 0.508,12.326 3.246,-0.075 6.538,0.927 9.273,3.062 0.14,0.099 0.271,0.209 0.392,0.33 2.781,2.781 4.53,6.321 4.932,9.95 0.392,3.541 -0.484,7.141 -2.905,10.215l-0.349 0.443c2.954,0.136 5.896,1.173 8.378,3.161 3.125,2.501 4.941,6.041 5.35,9.728 0.363,3.277 -0.385,6.684 -2.311,9.594 3.539,1.332 7.199,2.342 10.674,3.094 6.692,1.447 12.662,1.936 15.815,1.936 0.863,0 1.661,-0.138 2.379,-0.39 1.41,-0.495 2.596,-1.431 3.434,-2.62 0.835,-1.186 1.315,-2.623 1.315,-4.123 0,-0.295 -0.018,-0.591 -0.054,-0.885 -6.401,-1.685 -12.759,-3.982 -19.074,-6.888 -6.872,-3.164 -13.698,-7.053 -20.476,-11.667 -1.365,-0.932 -1.717,-2.795 -0.785,-4.16 0.932,-1.366 2.795,-1.717 4.16,-0.785 6.497,4.423 13.034,8.148 19.609,11.174 6.552,3.016 13.14,5.338 19.761,6.962 0.493,0.122 0.928,0.359 1.281,0.676 0.669,0.559 1.441,1.01 2.286,1.321 0.826,0.304 1.727,0.47 2.675,0.47 1.34,0 2.549,-0.314 3.583,-0.857 1.273,-0.669 2.311,-1.679 3.03,-2.877 0.72,-1.2 1.122,-2.596 1.122,-4.035 0,-0.833 -0.135,-1.676 -0.422,-2.499 -14.956,-4.881 -31.544,-13.114 -49.762,-24.699 -1.398,-0.887 -1.812,-2.739 -0.926,-4.137 0.887,-1.397 2.739,-1.812 4.137,-0.925 18.301,11.637 34.85,19.79 49.645,24.456 0.41,0.13 0.772,0.339 1.076,0.606 0.736,0.567 1.559,1.018 2.439,1.325 0.885,0.309 1.854,0.477 2.882,0.477 2.41,0 4.593,-0.977 6.172,-2.557 1.58,-1.579 2.557,-3.761 2.557,-6.172 0,-0.797 -0.106,-1.567 -0.304,-2.295 -0.114,-0.419 -0.254,-0.82 -0.417,-1.201 -4.243,-1.512 -10.63,-4.495 -19.159,-8.947 -9.315,-4.863 -21.141,-11.444 -35.476,-19.743 -1.43,-0.829 -1.918,-2.66 -1.09,-4.09 0.828,-1.43 2.66,-1.918 4.09,-1.09 14.396,8.335 26.143,14.877 35.242,19.626 8.978,4.687 15.421,7.662 19.328,8.926 0.176,0.051 0.35,0.118 0.52,0.204 2.957,1.488 5.689,1.038 7.684,-0.408 0.965,-0.699 1.77,-1.61 2.363,-2.636 0.6,-1.039 0.991,-2.201 1.12,-3.389 0.27,-2.494 -0.693,-5.13 -3.436,-6.945l-0.008 -0.005 -0.017 -0.011 -0.008 -0.006 -0.005 -0.003 -0.004 -0.003 -0.008 -0.005 -0.049 -0.035 -0.001 -0.001c-0.04,-0.029 -0.079,-0.059 -0.117,-0.089l-0.005 -0.004 -0.06 -0.049 -0.003 -0.003 -0.008 -0.006 -0.007 -0.007 -0.008 -0.006 -0.007 -0.006 -0.306 -0.259c-0.075,-0.057 -0.148,-0.118 -0.217,-0.183 -4.932,-4.162 -9.875,-8.324 -15.079,-12.483 -5.397,-4.312 -11.05,-8.601 -17.213,-12.842 -12.124,-8.347 -26.465,-16.685 -40.849,-25.024 -1.438,0.254 -2.883,0.55 -4.364,1.059 -1.799,0.618 -3.704,1.567 -5.823,3.174 -2.278,1.728 -4.951,4.326 -7.707,7.005 -2.794,2.716 -5.673,5.514 -8.504,7.763 -3.034,2.408 -6.023,4.199 -8.936,5.187 -3.191,1.081 -6.288,1.215 -9.257,0.184l-0.01 -0.004 -0.002 0.004c-3.214,-1.117 -6.194,-3.629 -7.778,-7.166 -1.317,-2.94 -1.67,-6.557 -0.379,-10.614 2.193,-6.889 9.274,-14.953 14.843,-20.943 -4.669,-0.066 -8.399,-0.354 -11.594,-1.167 -4.11,-1.045 -7.26,-2.874 -10.123,-6.02zm0.472 -8.781l-26.387 -15.677c-9.561,8.403 -16.929,18.147 -22.931,28.768 -6.001,10.619 -10.66,22.16 -14.785,34.134l26.023 15.463c0.108,-0.279 0.261,-0.545 0.458,-0.791 0.183,-0.228 0.394,-0.422 0.623,-0.582 3.982,-11.244 8.505,-22.119 14.247,-32.279 6.011,-10.637 13.342,-20.454 22.752,-29.036zm-11.174 92.643c0.126,-0.156 0.265,-0.297 0.413,-0.421l8.338 -10.463c0.08,-0.139 0.172,-0.274 0.277,-0.402l0.003 -0.003 0.01 0.008c1.442,-1.819 2.015,-4.074 1.774,-6.245 -0.235,-2.123 -1.256,-4.158 -3.008,-5.616l-0.152 -0.116 0.006 -0.007 -0.01 -0.009 0.002 -0.002c-1.816,-1.439 -4.067,-2.009 -6.236,-1.77 -2.173,0.24 -4.255,1.303 -5.717,3.13l-0.003 -0.002 -0.025 0.03 -0.003 -0.002 -6.769 8.455c-0.092,0.136 -0.195,0.265 -0.308,0.386l-1.913 2.389c-1.461,1.824 -2.041,4.092 -1.8,6.275 0.242,2.181 1.302,4.265 3.123,5.723 1.824,1.459 4.093,2.039 6.276,1.797 2.175,-0.241 4.258,-1.305 5.722,-3.135zm41.488 22.065c0.103,-0.232 0.237,-0.455 0.404,-0.663 0.322,-0.402 0.661,-0.782 1.016,-1.141l6.631 -8.417c1.386,-1.76 1.887,-3.824 1.662,-5.855 -0.247,-2.231 -1.352,-4.453 -3.12,-6.262 -1.807,-1.382 -4.02,-1.934 -6.145,-1.702 -1.969,0.215 -3.855,1.103 -5.26,2.624l-16.882 21.185c-0.105,0.278 -0.254,0.545 -0.447,0.791 -0.171,0.217 -0.323,0.43 -0.458,0.639 -1.082,1.685 -1.63,3.817 -1.475,5.872 0.144,1.905 0.918,3.715 2.469,4.937 0.177,0.139 0.351,0.264 0.52,0.373 2.169,1.393 4.651,2.022 6.945,1.768 2.021,-0.224 3.908,-1.159 5.274,-2.894l2.068 -2.625c0.371,-0.652 0.798,-1.282 1.281,-1.886 0.207,-0.258 0.448,-0.473 0.711,-0.644l4.806 -6.1zm-1.834 12.01c-0.73,1.485 -0.996,3.132 -0.819,4.734 0.241,2.176 1.306,4.259 3.134,5.724l-0.004 0.005c1.822,1.456 4.087,2.035 6.267,1.793 2.175,-0.24 4.259,-1.305 5.723,-3.133l0.006 0.004 4.07 -5.083c0.113,-0.177 0.244,-0.339 0.388,-0.485l1.459 -1.823c1.46,-1.824 2.04,-4.092 1.798,-6.276 -0.242,-2.18 -1.302,-4.263 -3.124,-5.721 -1.823,-1.46 -4.091,-2.041 -6.274,-1.799 -1.783,0.198 -3.505,0.95 -4.874,2.222l-7.75 9.838zm-8.249 -36.42c0.05,-0.076 0.103,-0.15 0.16,-0.222l0.056 -0.07c0.058,-0.073 0.119,-0.142 0.182,-0.208l0.007 -0.008 3.254 -4.084c2.999,-3.764 3.127,-7.75 1.642,-10.704 -0.556,-1.106 -1.328,-2.07 -2.249,-2.821 -0.913,-0.746 -1.964,-1.288 -3.085,-1.557 -2.89,-0.693 -6.42,0.411 -9.606,4.41l-21.688 27.217 -0.133 0.174c-1.265,1.679 -1.874,3.88 -1.7,6.044 0.169,2.097 1.097,4.139 2.906,5.58l-0.006 0.007 0.006 0.004c0.133,0.107 -0.062,-0.055 0.182,0.129 1.74,1.31 4.149,1.887 6.499,1.627 2.133,-0.236 4.175,-1.175 5.544,-2.894l18.029 -22.624zm101.7 -82.399c-1.63,0.248 -3.843,0.571 -6.47,0.847 -2.965,0.313 -6.282,0.531 -9.433,0.428 -4.889,-0.16 -9.108,-1.068 -13.426,-1.997 -1.196,-0.257 -2.401,-0.517 -3.781,-0.789 -2.765,-0.547 -5.602,-1.009 -8.752,-1.301 -3.229,-0.3 -6.872,-0.442 -11.222,-0.346 -4.58,0.1 -10.003,0.473 -15.189,1.091 -4.549,0.542 -8.81,1.26 -11.996,2.128 -6.311,1.721 -8.686,4.249 -13.777,9.671l-0.215 0.229c-5.363,5.712 -13.518,14.398 -15.574,20.856 -0.799,2.512 -0.617,4.672 0.144,6.372 0.876,1.954 2.518,3.341 4.288,3.955l-0.001 0.004c1.625,0.561 3.432,0.449 5.379,-0.211 2.229,-0.755 4.622,-2.21 7.132,-4.202 2.637,-2.095 5.388,-4.769 8.059,-7.365 2.855,-2.776 5.625,-5.468 8.27,-7.473 2.736,-2.077 5.184,-3.297 7.485,-4.088 2.256,-0.776 4.318,-1.126 6.379,-1.475 0.662,-0.109 1.366,0.001 1.992,0.364l0.115 0.067c14.737,8.542 29.471,17.083 42.071,25.758 6.349,4.37 12.096,8.727 17.541,13.077 4.772,3.813 9.333,7.635 13.867,11.459 3.512,-1.681 6.699,-3.626 9.622,-5.916 3.006,-2.355 5.758,-5.088 8.326,-8.286 -3.659,-10.063 -7.791,-19.76 -12.894,-28.79 -4.914,-8.695 -10.742,-16.802 -17.94,-24.067z" fill-rule="nonzero"/></g></svg>