<?xml version="1.0" encoding="UTF-8"?><svg xmlns="http://www.w3.org/2000/svg" xmlns:xlink="http://www.w3.org/1999/xlink" height="128.0" preserveAspectRatio="xMidYMid meet" version="1.0" viewBox="0.0 0.0 128.2 128.0" width="128.2" zoomAndPan="magnify"><g id="change1_1"><path d="M56,33H14c-1.1,0-2,0.9-2,2s0.9,2,2,2h42c1.1,0,2-0.9,2-2S57.1,33,56,33z" fill="inherit"/></g><g id="change1_2"><path d="M56,41H14c-1.1,0-2,0.9-2,2s0.9,2,2,2h42c1.1,0,2-0.9,2-2S57.1,41,56,41z" fill="inherit"/></g><g id="change1_3"><path d="M56,49H14c-1.1,0-2,0.9-2,2s0.9,2,2,2h42c1.1,0,2-0.9,2-2S57.1,49,56,49z" fill="inherit"/></g><g id="change1_4"><path d="M58,108c0-1.1-0.9-2-2-2H14c-1.1,0-2,0.9-2,2s0.9,2,2,2h42C57.1,110,58,109.1,58,108z" fill="inherit"/></g><g id="change1_5"><path d="M14,114c-1.1,0-2,0.9-2,2s0.9,2,2,2h29c1.1,0,2-0.9,2-2s-0.9-2-2-2H14z" fill="inherit"/></g><g id="change1_6"><path d="M43,78c1.1,0,2-0.9,2-2s-0.9-2-2-2H14c-1.1,0-2,0.9-2,2s0.9,2,2,2H43z" fill="inherit"/></g><g id="change1_7"><path d="M12,94c0,2.2,1.8,4,4,4h8c2.2,0,4-1.8,4-4v-8c0-2.2-1.8-4-4-4h-8c-2.2,0-4,1.8-4,4V94z M16,86h8v8h-8V86z" fill="inherit"/></g><g id="change1_8"><path d="M54.8,68.8l2.8-2.8H14c-1.1,0-2,0.9-2,2s0.9,2,2,2h39.8C54.1,69.5,54.4,69.1,54.8,68.8z" fill="inherit"/></g><g id="change1_9"><path d="M91.8,31.7c-0.5-1.6-2-2.7-3.8-2.7H68c-2.2,0-4,1.8-4,4v20c0,1.8,1.2,3.2,2.7,3.8l3.8-3.8H68V33h20v2.5L91.8,31.7z" fill="inherit"/></g><g id="change1_10"><path d="M73.9,89.7L72,90.3V94c0,2.2,1.8,4,4,4h8c2.2,0,4-1.8,4-4v-8c0-2.2-1.8-4-4-4h-1.5l-4,4H84v8h-8v-5.5 C75.4,89,74.7,89.4,73.9,89.7z" fill="inherit"/></g><g id="change1_11"><path d="M48.9,86l1.2-4H46c-2.2,0-4,1.8-4,4v8c0,2.2,1.8,4,4,4h8c1.8,0,3.4-1.3,3.8-3l-1.9,0.6C55.3,95.9,54.6,96,54,96 c-1.6,0-3-0.6-4.2-1.7c-0.1-0.1-0.2-0.2-0.3-0.3H46v-8H48.9z" fill="inherit"/></g><g id="change1_12"><path d="M104,19.5V8c0-4.4-3.6-8-8-8H8C3.6,0,0,3.6,0,8v112c0,4.4,3.6,8,8,8h88c4.4,0,8-3.6,8-8V60.5l-4,4V120c0,2.2-1.8,4-4,4H8 c-2.2,0-4-1.8-4-4V18h96v5.5L104,19.5z M4,14V8c0-2.2,1.8-4,4-4h88c2.2,0,4,1.8,4,4v6H4z" fill="inherit"/></g><g id="change1_13"><path d="M115.4,16.6c-0.8-0.8-2-0.8-2.8,0l-55,55c-0.2,0.2-0.4,0.5-0.5,0.8l-5,17c-0.2,0.7,0,1.5,0.5,2C53,91.8,53.5,92,54,92 c0.2,0,0.4,0,0.6-0.1l18-6c0.3-0.1,0.6-0.3,0.8-0.5l54-54c0.8-0.8,0.8-2,0-2.8L115.4,16.6z M57,86.9l3.8-12.8l0.2-0.2l8.8,8.8 L57,86.9z M73,80.2L63.8,71L107,27.8l9.2,9.2L73,80.2z M119,34.2l-9.2-9.2l4.2-4.2l9.2,9.2L119,34.2z" fill="inherit"/></g></svg>