<?xml version="1.0" encoding="UTF-8"?><svg xmlns="http://www.w3.org/2000/svg" xmlns:xlink="http://www.w3.org/1999/xlink" height="52.0" preserveAspectRatio="xMidYMid meet" version="1.0" viewBox="2.0 6.0 60.0 52.0" width="60.0" zoomAndPan="magnify"><g data-name="24-Secure Payment" id="change1_1"><path d="M9,26a.99943.99943,0,0,0-1,1v8a.99943.99943,0,0,0,1,1H19a.99943.99943,0,0,0,1-1V27a.99943.99943,0,0,0-1-1Zm9,8H10V28h8Zm13,6H7a3.00328,3.00328,0,0,1-3-3V22H52v3a1,1,0,0,0,2,0V11a5.00588,5.00588,0,0,0-5-5H7a5.00588,5.00588,0,0,0-5,5V37a5.00588,5.00588,0,0,0,5,5H31a1,1,0,0,0,0-2ZM4,20V14H52v6ZM7,8H49a3.00328,3.00328,0,0,1,3,3v1H4V11A3.00328,3.00328,0,0,1,7,8ZM61,30a23.36039,23.36039,0,0,1-12.41309-3.80957,1.00594,1.00594,0,0,0-1.17382,0A23.36039,23.36039,0,0,1,35,30a.99943.99943,0,0,0-1,1V41c0,12.37012,13.55469,16.90723,13.69141,16.95117a.99951.99951,0,0,0,.61718,0C48.44531,57.90723,62,53.37012,62,41V31A.99943.99943,0,0,0,61,30ZM60,41c0,9.92188-10.08984,14.21387-12,14.9375C46.08984,55.21387,36,50.92188,36,41V31.97754a25.3404,25.3404,0,0,0,12-3.77539,25.3404,25.3404,0,0,0,12,3.77539ZM46,45.58594l8.293-8.293A.99989.99989,0,0,1,55.707,38.707l-9,9a.99963.99963,0,0,1-1.41406,0l-5-5A.99989.99989,0,0,1,41.707,41.293Z"/></g></svg>