<svg xmlns="http://www.w3.org/2000/svg" xmlns:xlink="http://www.w3.org/1999/xlink" width="100" zoomAndPan="magnify" viewBox="0 0 75 30.000001" height="40" preserveAspectRatio="xMidYMid meet" version="1.0"><defs><g/><clipPath id="9a304b48a3"><path d="M 66 10 L 73.789062 10 L 73.789062 23 L 66 23 Z M 66 10 " clip-rule="nonzero"/></clipPath></defs><g fill="#000000" fill-opacity="1"><g transform="translate(1.653179, 22.072753)"><g><path d="M 0.671875 -7.71875 C 0.671875 -8.65625 0.835938 -9.566406 1.171875 -10.453125 C 1.503906 -11.347656 1.992188 -12.164062 2.640625 -12.90625 C 3.285156 -13.644531 4.070312 -14.226562 5 -14.65625 C 5.925781 -15.09375 6.984375 -15.3125 8.171875 -15.3125 C 9.578125 -15.3125 10.789062 -15.003906 11.8125 -14.390625 C 12.832031 -13.773438 13.59375 -12.976562 14.09375 -12 L 11.828125 -10.421875 C 11.566406 -10.992188 11.226562 -11.445312 10.8125 -11.78125 C 10.394531 -12.125 9.953125 -12.363281 9.484375 -12.5 C 9.015625 -12.632812 8.550781 -12.703125 8.09375 -12.703125 C 7.34375 -12.703125 6.691406 -12.550781 6.140625 -12.25 C 5.597656 -11.945312 5.140625 -11.550781 4.765625 -11.0625 C 4.390625 -10.582031 4.113281 -10.039062 3.9375 -9.4375 C 3.757812 -8.832031 3.671875 -8.234375 3.671875 -7.640625 C 3.671875 -6.960938 3.773438 -6.3125 3.984375 -5.6875 C 4.203125 -5.070312 4.503906 -4.523438 4.890625 -4.046875 C 5.285156 -3.566406 5.757812 -3.1875 6.3125 -2.90625 C 6.863281 -2.625 7.46875 -2.484375 8.125 -2.484375 C 8.601562 -2.484375 9.082031 -2.5625 9.5625 -2.71875 C 10.050781 -2.875 10.503906 -3.125 10.921875 -3.46875 C 11.335938 -3.8125 11.660156 -4.257812 11.890625 -4.8125 L 14.3125 -3.40625 C 14.007812 -2.65625 13.519531 -2.015625 12.84375 -1.484375 C 12.164062 -0.953125 11.40625 -0.550781 10.5625 -0.28125 C 9.71875 -0.0078125 8.878906 0.125 8.046875 0.125 C 6.960938 0.125 5.96875 -0.0976562 5.0625 -0.546875 C 4.164062 -0.992188 3.390625 -1.59375 2.734375 -2.34375 C 2.085938 -3.09375 1.582031 -3.9375 1.21875 -4.875 C 0.851562 -5.8125 0.671875 -6.757812 0.671875 -7.71875 Z M 0.671875 -7.71875 "/></g></g></g><g fill="#000000" fill-opacity="1"><g transform="translate(15.729684, 22.072753)"><g><path d="M 6.5 0.21875 C 5.582031 0.21875 4.757812 0.0664062 4.03125 -0.234375 C 3.300781 -0.546875 2.679688 -0.972656 2.171875 -1.515625 C 1.671875 -2.066406 1.28125 -2.691406 1 -3.390625 C 0.726562 -4.085938 0.59375 -4.820312 0.59375 -5.59375 C 0.59375 -6.382812 0.726562 -7.128906 1 -7.828125 C 1.28125 -8.523438 1.671875 -9.144531 2.171875 -9.6875 C 2.679688 -10.238281 3.300781 -10.664062 4.03125 -10.96875 C 4.757812 -11.28125 5.582031 -11.4375 6.5 -11.4375 C 7.414062 -11.4375 8.234375 -11.28125 8.953125 -10.96875 C 9.679688 -10.664062 10.300781 -10.238281 10.8125 -9.6875 C 11.320312 -9.144531 11.707031 -8.523438 11.96875 -7.828125 C 12.238281 -7.128906 12.375 -6.382812 12.375 -5.59375 C 12.375 -4.820312 12.238281 -4.085938 11.96875 -3.390625 C 11.707031 -2.691406 11.320312 -2.066406 10.8125 -1.515625 C 10.3125 -0.972656 9.695312 -0.546875 8.96875 -0.234375 C 8.238281 0.0664062 7.414062 0.21875 6.5 0.21875 Z M 3.5625 -5.59375 C 3.5625 -4.9375 3.6875 -4.351562 3.9375 -3.84375 C 4.195312 -3.34375 4.546875 -2.945312 4.984375 -2.65625 C 5.429688 -2.375 5.9375 -2.234375 6.5 -2.234375 C 7.039062 -2.234375 7.53125 -2.378906 7.96875 -2.671875 C 8.414062 -2.960938 8.769531 -3.363281 9.03125 -3.875 C 9.300781 -4.382812 9.4375 -4.96875 9.4375 -5.625 C 9.4375 -6.269531 9.300781 -6.847656 9.03125 -7.359375 C 8.769531 -7.867188 8.414062 -8.265625 7.96875 -8.546875 C 7.53125 -8.835938 7.039062 -8.984375 6.5 -8.984375 C 5.9375 -8.984375 5.429688 -8.835938 4.984375 -8.546875 C 4.546875 -8.253906 4.195312 -7.851562 3.9375 -7.34375 C 3.6875 -6.84375 3.5625 -6.257812 3.5625 -5.59375 Z M 3.5625 -5.59375 "/></g></g></g><g fill="#000000" fill-opacity="1"><g transform="translate(28.089541, 22.072753)"><g><path d="M 1.28125 -15.65625 L 4.15625 -15.65625 L 4.15625 -3.609375 C 4.15625 -3.085938 4.238281 -2.738281 4.40625 -2.5625 C 4.582031 -2.382812 4.820312 -2.296875 5.125 -2.296875 C 5.351562 -2.296875 5.585938 -2.320312 5.828125 -2.375 C 6.078125 -2.4375 6.296875 -2.507812 6.484375 -2.59375 L 6.859375 -0.40625 C 6.472656 -0.21875 6.019531 -0.078125 5.5 0.015625 C 4.988281 0.117188 4.53125 0.171875 4.125 0.171875 C 3.21875 0.171875 2.515625 -0.0664062 2.015625 -0.546875 C 1.523438 -1.023438 1.28125 -1.707031 1.28125 -2.59375 Z M 1.28125 -15.65625 "/></g></g></g><g fill="#000000" fill-opacity="1"><g transform="translate(34.248007, 22.072753)"><g><path d="M 1.28125 -15.65625 L 4.15625 -15.65625 L 4.15625 -3.609375 C 4.15625 -3.085938 4.238281 -2.738281 4.40625 -2.5625 C 4.582031 -2.382812 4.820312 -2.296875 5.125 -2.296875 C 5.351562 -2.296875 5.585938 -2.320312 5.828125 -2.375 C 6.078125 -2.4375 6.296875 -2.507812 6.484375 -2.59375 L 6.859375 -0.40625 C 6.472656 -0.21875 6.019531 -0.078125 5.5 0.015625 C 4.988281 0.117188 4.53125 0.171875 4.125 0.171875 C 3.21875 0.171875 2.515625 -0.0664062 2.015625 -0.546875 C 1.523438 -1.023438 1.28125 -1.707031 1.28125 -2.59375 Z M 1.28125 -15.65625 "/></g></g></g><g fill="#000000" fill-opacity="1"><g transform="translate(40.406473, 22.072753)"><g><path d="M 0.53125 -3.328125 C 0.53125 -4.054688 0.734375 -4.695312 1.140625 -5.25 C 1.554688 -5.800781 2.128906 -6.222656 2.859375 -6.515625 C 3.585938 -6.816406 4.421875 -6.96875 5.359375 -6.96875 C 5.835938 -6.96875 6.316406 -6.929688 6.796875 -6.859375 C 7.285156 -6.785156 7.707031 -6.671875 8.0625 -6.515625 L 8.0625 -7.125 C 8.0625 -7.832031 7.847656 -8.378906 7.421875 -8.765625 C 7.003906 -9.160156 6.382812 -9.359375 5.5625 -9.359375 C 4.945312 -9.359375 4.359375 -9.25 3.796875 -9.03125 C 3.234375 -8.8125 2.644531 -8.5 2.03125 -8.09375 L 1.109375 -9.96875 C 1.859375 -10.457031 2.617188 -10.820312 3.390625 -11.0625 C 4.171875 -11.3125 4.992188 -11.4375 5.859375 -11.4375 C 7.460938 -11.4375 8.707031 -11.035156 9.59375 -10.234375 C 10.488281 -9.429688 10.9375 -8.285156 10.9375 -6.796875 L 10.9375 -3.21875 C 10.9375 -2.914062 10.988281 -2.695312 11.09375 -2.5625 C 11.207031 -2.4375 11.382812 -2.363281 11.625 -2.34375 L 11.625 0 C 11.363281 0.0390625 11.128906 0.078125 10.921875 0.109375 C 10.722656 0.140625 10.550781 0.15625 10.40625 0.15625 C 9.832031 0.15625 9.398438 0.0234375 9.109375 -0.234375 C 8.816406 -0.492188 8.632812 -0.8125 8.5625 -1.1875 L 8.5 -1.765625 C 8.007812 -1.128906 7.398438 -0.640625 6.671875 -0.296875 C 5.941406 0.046875 5.195312 0.21875 4.4375 0.21875 C 3.695312 0.21875 3.03125 0.0664062 2.4375 -0.234375 C 1.84375 -0.546875 1.375 -0.96875 1.03125 -1.5 C 0.695312 -2.039062 0.53125 -2.648438 0.53125 -3.328125 Z M 7.53125 -2.75 C 7.6875 -2.914062 7.8125 -3.082031 7.90625 -3.25 C 8.007812 -3.425781 8.0625 -3.585938 8.0625 -3.734375 L 8.0625 -4.875 C 7.71875 -5.007812 7.34375 -5.117188 6.9375 -5.203125 C 6.539062 -5.285156 6.164062 -5.328125 5.8125 -5.328125 C 5.070312 -5.328125 4.460938 -5.164062 3.984375 -4.84375 C 3.503906 -4.519531 3.265625 -4.09375 3.265625 -3.5625 C 3.265625 -3.269531 3.34375 -2.992188 3.5 -2.734375 C 3.65625 -2.484375 3.882812 -2.28125 4.1875 -2.125 C 4.488281 -1.96875 4.84375 -1.890625 5.25 -1.890625 C 5.6875 -1.890625 6.109375 -1.96875 6.515625 -2.125 C 6.929688 -2.289062 7.269531 -2.5 7.53125 -2.75 Z M 7.53125 -2.75 "/></g></g></g><g fill="#000000" fill-opacity="1"><g transform="translate(52.079667, 22.072753)"><g><path d="M 7.703125 0.21875 C 6.847656 0.21875 6.082031 0.0234375 5.40625 -0.359375 C 4.726562 -0.742188 4.195312 -1.273438 3.8125 -1.953125 L 3.8125 0 L 1.3125 0 L 1.3125 -15.65625 L 4.1875 -15.65625 L 4.1875 -9.265625 C 4.582031 -9.941406 5.101562 -10.472656 5.75 -10.859375 C 6.40625 -11.242188 7.171875 -11.4375 8.046875 -11.4375 C 8.773438 -11.4375 9.4375 -11.28125 10.03125 -10.96875 C 10.632812 -10.664062 11.15625 -10.238281 11.59375 -9.6875 C 12.03125 -9.144531 12.363281 -8.523438 12.59375 -7.828125 C 12.832031 -7.128906 12.953125 -6.378906 12.953125 -5.578125 C 12.953125 -4.773438 12.816406 -4.023438 12.546875 -3.328125 C 12.285156 -2.628906 11.921875 -2.007812 11.453125 -1.46875 C 10.984375 -0.9375 10.429688 -0.519531 9.796875 -0.21875 C 9.160156 0.0703125 8.460938 0.21875 7.703125 0.21875 Z M 6.90625 -2.234375 C 7.363281 -2.234375 7.78125 -2.320312 8.15625 -2.5 C 8.539062 -2.675781 8.867188 -2.914062 9.140625 -3.21875 C 9.421875 -3.519531 9.632812 -3.875 9.78125 -4.28125 C 9.9375 -4.6875 10.015625 -5.113281 10.015625 -5.5625 C 10.015625 -6.175781 9.890625 -6.742188 9.640625 -7.265625 C 9.390625 -7.785156 9.046875 -8.203125 8.609375 -8.515625 C 8.171875 -8.828125 7.660156 -8.984375 7.078125 -8.984375 C 6.660156 -8.984375 6.265625 -8.882812 5.890625 -8.6875 C 5.515625 -8.5 5.175781 -8.238281 4.875 -7.90625 C 4.582031 -7.582031 4.351562 -7.210938 4.1875 -6.796875 L 4.1875 -4.125 C 4.269531 -3.832031 4.40625 -3.570312 4.59375 -3.34375 C 4.789062 -3.113281 5.015625 -2.914062 5.265625 -2.75 C 5.523438 -2.59375 5.796875 -2.46875 6.078125 -2.375 C 6.359375 -2.28125 6.632812 -2.234375 6.90625 -2.234375 Z M 6.90625 -2.234375 "/></g></g></g><g clip-path="url(#9a304b48a3)"><g fill="#9f16ff" fill-opacity="1"><g transform="translate(65.040376, 22.072753)"><g><path d="M 8 -8.75 C 7.125 -8.75 6.34375 -8.582031 5.65625 -8.25 C 4.976562 -7.914062 4.488281 -7.429688 4.1875 -6.796875 L 4.1875 0 L 1.3125 0 L 1.3125 -11.234375 L 3.953125 -11.234375 L 3.953125 -8.84375 C 4.347656 -9.613281 4.851562 -10.21875 5.46875 -10.65625 C 6.082031 -11.101562 6.734375 -11.347656 7.421875 -11.390625 C 7.578125 -11.390625 7.695312 -11.390625 7.78125 -11.390625 C 7.875 -11.390625 7.945312 -11.382812 8 -11.375 Z M 8 -8.75 "/></g></g></g></g></svg>