<svg width="82" height="60" viewBox="0 0 82 60" fill="none" xmlns="http://www.w3.org/2000/svg">
<g clip-path="url(#clip0_165_256)">
<path d="M65 54H29C28.4 54 28 53.6 28 53V7C28 6.4 28.4 6 29 6H65C65.6 6 66 6.4 66 7V15C66 15.6 65.6 16 65 16C64.4 16 64 15.6 64 15V8H30V52H64V50C64 49.4 64.4 49 65 49C65.6 49 66 49.4 66 50V53C66 53.6 65.6 54 65 54Z" fill="black"/>
<path d="M65 8H29C28.4 8 28 7.6 28 7V3C28 1.3 29.3 0 31 0H63C64.7 0 66 1.3 66 3V7C66 7.6 65.6 8 65 8ZM30 6H64V3C64 2.4 63.6 2 63 2H31C30.4 2 30 2.4 30 3V6Z" fill="black"/>
<path d="M49 5H45C44.4 5 44 4.6 44 4C44 3.4 44.4 3 45 3H49C49.6 3 50 3.4 50 4C50 4.6 49.6 5 49 5Z" fill="black"/>
<path d="M63 60H31C29.3 60 28 58.7 28 57V53C28 52.4 28.4 52 29 52H65C65.6 52 66 52.4 66 53V57C66 58.7 64.7 60 63 60ZM30 54V57C30 57.6 30.4 58 31 58H63C63.6 58 64 57.6 64 57V54H30Z" fill="black"/>
<path d="M49 57H45C44.4 57 44 56.6 44 56C44 55.4 44.4 55 45 55H49C49.6 55 50 55.4 50 56C50 56.6 49.6 57 49 57Z" fill="black"/>
<path d="M59.2999 30.3C57.7999 30.3 56.4999 29.1 56.2999 27.6L55.8999 23.6C55.6999 22 56.8999 20.5 58.5999 20.3L63.5999 19.8L64.5999 29.8L59.5999 30.3C59.4999 30.3 59.3999 30.3 59.2999 30.3ZM61.7999 22L58.7999 22.3C58.2999 22.4 57.7999 22.8 57.8999 23.4L58.2999 27.4C58.3999 27.9 58.8999 28.3 59.3999 28.3L62.3999 28L61.7999 22Z" fill="black"/>
<path d="M75.7 33.7C75.4 33.7 75.1 33.7 74.8 33.6L62.5 29.7L61.6 20.4L72.9 14.2C73.8 13.7 74.9 13.7 75.7 14.2C76.6 14.7 77.2 15.6 77.3 16.6L78.7 30.5C78.8 31.5 78.4 32.5 77.6 33.1C77 33.4 76.4 33.7 75.7 33.7ZM75.4 31.6C75.7 31.7 76.1 31.6 76.3 31.4C76.6 31.2 76.7 30.9 76.7 30.5L75.3 16.6C75.3 16.3 75.1 16 74.8 15.8C74.5 15.6 74.2 15.6 73.9 15.8L63.8 21.4L64.5 28L75.4 31.6Z" fill="black"/>
<path d="M76.4 27.6L75.6 19.6L76.6 19.5C78.8 19.3 80.8 20.9 81 23.1C81.2 25.3 79.6 27.3 77.4 27.5L76.4 27.6ZM77.8 21.7L78.1 25.1C78.7 24.7 79 24 78.9 23.3C78.9 22.6 78.4 22 77.8 21.7Z" fill="black"/>
<path d="M62.4872 29.0045L64.4776 28.809L64.9173 33.2874L62.9269 33.4829L62.4872 29.0045Z" fill="black"/>
<path d="M66.5659 30.3071L68.5563 30.1118L68.8297 32.8984L66.8393 33.0937L66.5659 30.3071Z" fill="black"/>
<path d="M45 34C39.5 34 35 29.5 35 24C35 18.5 39.5 14 45 14C50.5 14 55 18.5 55 24C55 29.5 50.5 34 45 34ZM45 16C40.6 16 37 19.6 37 24C37 28.4 40.6 32 45 32C49.4 32 53 28.4 53 24C53 19.6 49.4 16 45 16Z" fill="black"/>
<path d="M58 54H35C34.4 54 34 53.6 34 53V41C34 37.1 37.1 34 41 34H46C50.2 34 54.1 36 56.6 39.4C56.9 39.8 56.8 40.5 56.4 40.8C56 41.1 55.3 41 55 40.6C52.9 37.7 49.5 36 46 36H41C38.2 36 36 38.2 36 41V52H57V47C57 46.7 57 46.4 57 46.1C57 45.5 57.4 45.1 57.9 45C58.5 44.9 58.9 45.4 59 45.9C59 46.3 59 46.6 59 47V53C59 53.6 58.6 54 58 54Z" fill="black"/>
<path d="M63 47H46C43.8 47 42 45.2 42 43C42 40.8 43.8 39 46 39H61C61.6 39 62 38.6 62 38V35C62 33.3 63.3 32 65 32H67C68.7 32 70 33.3 70 35V40C70 43.9 66.9 47 63 47ZM46 41C44.9 41 44 41.9 44 43C44 44.1 44.9 45 46 45H63C65.8 45 68 42.8 68 40V35C68 34.4 67.6 34 67 34H65C64.4 34 64 34.4 64 35V38C64 39.7 62.7 41 61 41H46Z" fill="black"/>
</g>
<g clip-path="url(#clip1_165_256)">
<path d="M15.2501 4.25C15.6641 4.25 16.0001 3.914 16.0001 3.5C16.0001 3.086 15.6641 2.75 15.2501 2.75H11.0001H8.75005C8.33605 2.75 8.00005 3.086 8.00005 3.5C8.00005 3.914 8.33605 4.25 8.75005 4.25H11.0001C11.7901 4.25 12.4521 4.78 12.6681 5.5H8.75005C8.33605 5.5 8.00005 5.836 8.00005 6.25C8.00005 6.664 8.33605 7 8.75005 7H12.4321C12.1151 7.452 11.5921 7.75 11.0001 7.75H8.75005C8.42105 7.75 8.13005 7.965 8.03305 8.279C7.93605 8.593 8.05505 8.934 8.32705 9.12L13.8271 12.87C13.9571 12.958 14.1031 13 14.2491 13C14.4891 13 14.7251 12.886 14.8701 12.673C15.1021 12.33 15.0151 11.863 14.6731 11.63L11.1751 9.245C12.5401 9.173 13.6711 8.248 14.0781 7H15.2501C15.6641 7 16.0001 6.664 16.0001 6.25C16.0001 5.836 15.6641 5.5 15.2501 5.5H14.1991C14.1281 5.046 13.9691 4.622 13.7301 4.25H15.2501Z" fill="black"/>
<path d="M21.25 0H2.75C1.233 0 0 1.233 0 2.75V13.25C0 14.767 1.233 16 2.75 16H21.25C22.767 16 24 14.767 24 13.25V2.75C24 1.233 22.767 0 21.25 0ZM22.5 13.25C22.5 13.939 21.939 14.5 21.25 14.5H2.75C2.061 14.5 1.5 13.939 1.5 13.25V2.75C1.5 2.061 2.061 1.5 2.75 1.5H21.25C21.939 1.5 22.5 2.061 22.5 2.75V13.25Z" fill="black"/>
<path d="M6.25 3H3.75C3.336 3 3 3.336 3 3.75C3 4.164 3.336 4.5 3.75 4.5H6.25C6.664 4.5 7 4.164 7 3.75C7 3.336 6.664 3 6.25 3Z" fill="black"/>
<path d="M20.25 11.5H17.75C17.336 11.5 17 11.836 17 12.25C17 12.664 17.336 13 17.75 13H20.25C20.664 13 21 12.664 21 12.25C21 11.836 20.664 11.5 20.25 11.5Z" fill="black"/>
</g>
<defs>
<clipPath id="clip0_165_256">
<rect width="53.2" height="60" fill="white" transform="translate(28)"/>
</clipPath>
<clipPath id="clip1_165_256">
<rect width="24" height="16" fill="white"/>
</clipPath>
</defs>
</svg>
