<?xml version="1.0" encoding="UTF-8"?><svg xmlns="http://www.w3.org/2000/svg" xmlns:xlink="http://www.w3.org/1999/xlink" height="66.5" preserveAspectRatio="xMidYMid meet" version="1.0" viewBox="-0.1 -0.5 61.0 66.5" width="61.0" zoomAndPan="magnify"><g data-name="Layer 2"><g id="change1_1"><path d="M30.45,11.74a5.87,5.87,0,1,0-5.87-5.87A5.87,5.87,0,0,0,30.45,11.74Zm0-9.74a3.87,3.87,0,1,1-3.87,3.87A3.87,3.87,0,0,1,30.45,2Z" fill="inherit"/><path d="M60.61,46l-3.5-3.49a1,1,0,1,0-1.41,1.41l1.79,1.79H46.68c-.68-2.37-3.77-4.33-8.41-5.4L49.62,28.93v2.51a1,1,0,1,0,2,0V26.5a1,1,0,0,0-1-1H45.67a1,1,0,0,0,0,2h2.54L36,39.71v-5.4h1.26a2.42,2.42,0,0,0,2.42-2.42V18.46a4.8,4.8,0,0,0-3.51-4.66,18.75,18.75,0,0,0-3-.51,1,1,0,0,0-1,.56l-1.77,3.68-1.76-3.68a1,1,0,0,0-1-.56,18.55,18.55,0,0,0-3,.51,4.81,4.81,0,0,0-3.52,4.66V31.89a2.42,2.42,0,0,0,2.43,2.42H24.9v5.4L12.69,27.5h2.54a1,1,0,1,0,0-2H10.29a1,1,0,0,0-1,1v4.94a1,1,0,1,0,2,0V28.93L22.63,40.27c-4.64,1.07-7.72,3-8.4,5.4H3.42L5.2,43.89a1,1,0,0,0,0-1.42,1,1,0,0,0-1.41,0L.29,46a1,1,0,0,0,0,1.41l3.5,3.5a1,1,0,0,0,1.41,0,1,1,0,0,0,0-1.42L3.41,47.67H14.24c.69,2.4,3.83,4.37,8.38,5.42l-9.49,9.49V60.06a1,1,0,0,0-2,0V65a1,1,0,0,0,1,1h4.94a1,1,0,0,0,0-2H14.53L25,53.53a38.28,38.28,0,0,0,10.9,0L46.37,64H43.83a1,1,0,0,0,0,2h4.94a1,1,0,0,0,1-1V60.06a1,1,0,0,0-2,0v2.52l-9.48-9.49c4.55-1.05,7.69-3,8.38-5.42H57.49L55.7,49.46a1,1,0,0,0,0,1.41,1,1,0,0,0,1.41,0l3.5-3.49a1,1,0,0,0,.29-.71A1,1,0,0,0,60.61,46Zm-37-13.65a.42.42,0,0,1-.43-.42V18.46a2.82,2.82,0,0,1,2-2.73,15.07,15.07,0,0,1,1.93-.37l2.36,4.91a1,1,0,0,0,.9.57h0a1,1,0,0,0,.9-.57l2.37-4.91a15.42,15.42,0,0,1,1.93.37,2.82,2.82,0,0,1,2,2.73V31.89a.42.42,0,0,1-.42.42H36v-7.6a1,1,0,0,0-2,0V33.3h0V44.4a1.28,1.28,0,0,1-2.55,0V35.69a1,1,0,0,0-2,0V44.4a1.28,1.28,0,0,1-2.55,0V33.31h0V24.71a1,1,0,0,0-2,0v7.6Zm6.8,19.61c-8.47,0-14.37-2.77-14.37-5.25,0-1.7,3.08-3.88,8.82-4.81V44.4a3.28,3.28,0,0,0,3.27,3.27,3.23,3.23,0,0,0,2.28-.93,3.23,3.23,0,0,0,2.28.93A3.28,3.28,0,0,0,36,44.4V41.87c5.74.92,8.83,3.1,8.83,4.8C44.83,49.15,38.92,51.92,30.45,51.92Z" fill="inherit"/></g></g></svg>