<?xml version="1.0" encoding="UTF-8" standalone="no"?><svg xmlns="http://www.w3.org/2000/svg" xmlns:xlink="http://www.w3.org/1999/xlink" fill="currentColor" height="62.7" preserveAspectRatio="xMidYMid meet" version="1" viewBox="0.0 0.0 62.0 62.7" width="62" zoomAndPan="magnify"><g id="change1_1"><path d="M 30 52.484375 L 30 54.671875 L 32 54.671875 L 32 52.671875 L 34 52.671875 L 34 49.671875 C 34 48.015625 32.65625 46.671875 31 46.671875 C 30.449219 46.671875 30 46.222656 30 45.671875 L 30 44.671875 L 31 44.671875 C 31.550781 44.671875 32 45.117188 32 45.671875 L 32 46.671875 L 34 46.671875 L 34 45.671875 C 34 44.367188 33.160156 43.269531 32 42.855469 L 32 40.671875 L 30 40.671875 L 30 42.671875 L 28 42.671875 L 28 45.671875 C 28 47.324219 29.34375 48.671875 31 48.671875 C 31.550781 48.671875 32 49.117188 32 49.671875 L 32 50.671875 L 31 50.671875 C 30.449219 50.671875 30 50.222656 30 49.671875 L 30 48.671875 L 28 48.671875 L 28 49.671875 C 28 50.972656 28.839844 52.070312 30 52.484375" fill="inherit"/><path d="M 2 60.671875 L 2 34.671875 L 60 34.671875 L 60.003906 60.671875 Z M 4 29.710938 C 6.332031 30.601562 9.996094 30.671875 11 30.671875 C 12.03125 30.671875 13.042969 30.621094 14 30.527344 L 14 32.671875 L 4 32.671875 Z M 11 2.671875 C 14.542969 2.671875 16.863281 3.242188 17.726562 3.671875 C 16.863281 4.101562 14.542969 4.671875 11 4.671875 C 7.457031 4.671875 5.136719 4.101562 4.273438 3.671875 C 5.136719 3.242188 7.457031 2.671875 11 2.671875 Z M 4 5.710938 C 6.332031 6.601562 9.996094 6.671875 11 6.671875 C 12.003906 6.671875 15.667969 6.601562 18 5.710938 L 18 9.488281 C 17.53125 9.914062 15.085938 10.671875 11 10.671875 C 6.914062 10.671875 4.46875 9.914062 4 9.488281 Z M 14 15.671875 L 14 16.519531 C 13.054688 16.617188 12.035156 16.671875 11 16.671875 C 6.914062 16.671875 4.46875 15.914062 4 15.488281 L 4 11.710938 C 6.332031 12.601562 9.996094 12.671875 11 12.671875 C 12.003906 12.671875 15.667969 12.601562 18 11.710938 L 18 13.089844 C 15.914062 13.480469 14 14.226562 14 15.671875 Z M 29.726562 15.671875 C 28.863281 16.101562 26.542969 16.671875 23 16.671875 C 19.457031 16.671875 17.136719 16.101562 16.273438 15.671875 C 17.136719 15.242188 19.457031 14.671875 23 14.671875 C 26.542969 14.671875 28.863281 15.242188 29.726562 15.671875 Z M 30 27.488281 C 29.53125 27.914062 27.085938 28.671875 23 28.671875 C 18.914062 28.671875 16.46875 27.914062 16 27.488281 L 16 23.710938 C 18.332031 24.601562 21.996094 24.671875 23 24.671875 C 24.003906 24.671875 27.667969 24.601562 30 23.710938 Z M 30 21.488281 C 29.53125 21.914062 27.085938 22.671875 23 22.671875 C 18.914062 22.671875 16.46875 21.914062 16 21.488281 L 16 17.710938 C 18.332031 18.601562 21.996094 18.671875 23 18.671875 C 24.003906 18.671875 27.667969 18.601562 30 17.710938 Z M 4 17.710938 C 6.332031 18.601562 9.996094 18.671875 11 18.671875 C 12.03125 18.671875 13.042969 18.621094 14 18.527344 L 14 22.519531 C 13.054688 22.617188 12.035156 22.671875 11 22.671875 C 6.914062 22.671875 4.46875 21.914062 4 21.488281 Z M 4 23.710938 C 6.332031 24.601562 9.996094 24.671875 11 24.671875 C 12.03125 24.671875 13.042969 24.621094 14 24.527344 L 14 28.519531 C 13.054688 28.617188 12.035156 28.671875 11 28.671875 C 6.914062 28.671875 4.46875 27.914062 4 27.488281 Z M 16 32.671875 L 16 29.710938 C 18.332031 30.601562 21.996094 30.671875 23 30.671875 C 24.003906 30.671875 27.667969 30.601562 30 29.710938 L 30 32.671875 Z M 39 24.671875 L 39 14.671875 L 43 14.671875 L 43 24.671875 L 45 24.671875 L 41 30.003906 L 37 24.671875 Z M 60 32.671875 L 41.5 32.671875 L 49 22.671875 L 45 22.671875 L 45 12.671875 L 37 12.671875 L 37 22.671875 L 33 22.671875 L 40.5 32.671875 L 32 32.671875 L 32 15.671875 C 32 12.816406 24.503906 12.671875 23 12.671875 C 22.5 12.671875 21.332031 12.6875 20 12.816406 L 20 3.671875 C 20 0.816406 12.503906 0.671875 11 0.671875 C 9.496094 0.671875 2 0.816406 2 3.671875 L 2 32.671875 C 0.898438 32.671875 0 33.566406 0 34.671875 L 0 60.671875 C 0 61.773438 0.898438 62.671875 2 62.671875 L 60 62.671875 C 61.101562 62.671875 62 61.773438 62 60.671875 L 62 34.671875 C 62 33.566406 61.101562 32.671875 60 32.671875" fill="inherit"/><path d="M 50.082031 38.671875 C 50.519531 41.730469 52.941406 44.148438 56 44.589844 L 56 50.75 C 52.941406 51.191406 50.519531 53.613281 50.082031 56.671875 L 37.304688 56.671875 C 40.140625 54.679688 42 51.390625 42 47.671875 C 42 43.949219 40.140625 40.664062 37.304688 38.671875 Z M 56 42.570312 C 54.042969 42.171875 52.5 40.625 52.101562 38.671875 L 56 38.671875 Z M 52.101562 56.671875 C 52.5 54.714844 54.042969 53.171875 56 52.773438 L 56 56.671875 Z M 31 38.671875 C 35.964844 38.671875 40 42.707031 40 47.671875 C 40 52.632812 35.964844 56.671875 31 56.671875 C 26.035156 56.671875 22 52.632812 22 47.671875 C 22 42.707031 26.035156 38.671875 31 38.671875 Z M 11.917969 56.671875 C 11.480469 53.613281 9.058594 51.191406 6 50.75 L 6 44.589844 C 9.058594 44.148438 11.480469 41.730469 11.917969 38.671875 L 24.695312 38.671875 C 21.859375 40.664062 20 43.949219 20 47.671875 C 20 51.390625 21.859375 54.679688 24.695312 56.671875 Z M 6 52.773438 C 7.957031 53.171875 9.5 54.714844 9.898438 56.671875 L 6 56.671875 Z M 9.898438 38.671875 C 9.5 40.625 7.957031 42.171875 6 42.570312 L 6 38.671875 Z M 4 36.671875 L 4 58.671875 L 58 58.671875 L 58 36.671875 L 4 36.671875" fill="inherit"/><path d="M 54 3.335938 L 58 8.671875 L 56 8.671875 L 56 18.671875 L 52 18.671875 L 52 8.671875 L 50 8.671875 Z M 50 20.671875 L 58 20.671875 L 58 10.671875 L 62 10.671875 L 54 0.00390625 L 46 10.671875 L 50 10.671875 L 50 20.671875" fill="inherit"/></g></svg>