<?xml version="1.0" encoding="UTF-8"?><svg xmlns="http://www.w3.org/2000/svg" xmlns:xlink="http://www.w3.org/1999/xlink" height="60.0" preserveAspectRatio="xMidYMid meet" version="1.0" viewBox="2.0 2.0 60.0 60.0" width="60.0" zoomAndPan="magnify"><g fill="#100f0d" id="change1_1"><path d="M 20 38 C 18.78125 38 18 37.40625 18 37 C 18 36.449219 17.550781 36 17 36 C 16.449219 36 16 36.449219 16 37 C 16 38.421875 17.257812 39.570312 19 39.898438 L 19 41 C 19 41.550781 19.449219 42 20 42 C 20.550781 42 21 41.550781 21 41 L 21 39.898438 C 22.742188 39.570312 24 38.421875 24 37 C 24 35.316406 22.242188 34 20 34 C 18.78125 34 18 33.40625 18 33 C 18 32.59375 18.78125 32 20 32 C 21.21875 32 22 32.59375 22 33 C 22 33.550781 22.449219 34 23 34 C 23.550781 34 24 33.550781 24 33 C 24 31.578125 22.742188 30.429688 21 30.101562 L 21 29 C 21 28.449219 20.550781 28 20 28 C 19.449219 28 19 28.449219 19 29 L 19 30.101562 C 17.257812 30.429688 16 31.578125 16 33 C 16 34.683594 17.757812 36 20 36 C 21.21875 36 22 36.59375 22 37 C 22 37.40625 21.21875 38 20 38" fill="inherit"/><path d="M 36 30.898438 C 34.039062 30.5 32.5 28.960938 32.097656 27 L 36 27 Z M 36 37.082031 C 32.941406 37.519531 30.519531 39.941406 30.082031 43 L 17 43 L 17 41.832031 C 17 41.03125 16.691406 40.269531 16.121094 39.710938 L 15 38.589844 L 15 37 C 15 35.351562 13.652344 34 12 34 C 10.347656 34 9 35.351562 9 37 L 9 40.410156 C 7.941406 38.648438 6.121094 37.390625 4 37.082031 L 4 32.917969 C 7.058594 32.480469 9.480469 30.058594 9.917969 27 L 30.082031 27 C 30.519531 30.058594 32.941406 32.480469 36 32.917969 Z M 36 43 L 32.097656 43 C 32.5 41.039062 34.039062 39.5 36 39.101562 Z M 29 46.167969 C 29 46.441406 28.902344 46.691406 28.710938 46.878906 L 27.878906 47.710938 C 27.308594 48.269531 27 49.03125 27 49.832031 L 27 52 L 13 52 L 13 49.832031 C 13 49.03125 12.691406 48.269531 12.121094 47.710938 L 11.289062 46.878906 C 11.097656 46.691406 11 46.441406 11 46.167969 L 11 37 C 11 36.449219 11.449219 36 12 36 C 12.550781 36 13 36.449219 13 37 L 13 39 C 13 39.269531 13.109375 39.519531 13.289062 39.710938 L 14.710938 41.121094 C 14.902344 41.308594 15 41.558594 15 41.832031 L 15 44 C 15 44.550781 15.449219 45 16 45 L 29 45 Z M 29 60 L 11 60 L 11 54 L 29 54 Z M 4 43 L 4 39.101562 C 5.960938 39.5 7.5 41.039062 7.898438 43 Z M 4 27 L 7.898438 27 C 7.5 28.960938 5.960938 30.5 4 30.898438 Z M 15 22 C 15 21.449219 15.449219 21 16 21 C 16.550781 21 17 21.449219 17 22 L 17 25 L 15 25 Z M 19 20 C 19 19.449219 19.449219 19 20 19 C 20.550781 19 21 19.449219 21 20 L 21 25 L 19 25 Z M 23 22 C 23 21.449219 23.449219 21 24 21 C 24.550781 21 25 21.449219 25 22 L 25 25 L 23 25 Z M 27 23 C 27 22.449219 27.449219 22 28 22 C 28.550781 22 29 22.449219 29 23 L 29 25 L 27 25 Z M 37 25 L 31 25 L 31 23 C 31 21.351562 29.652344 20 28 20 C 27.460938 20 26.96875 20.148438 26.53125 20.398438 C 26 19.558594 25.070312 19 24 19 C 23.609375 19 23.230469 19.082031 22.878906 19.21875 C 22.539062 17.949219 21.378906 17 20 17 C 18.621094 17 17.460938 17.949219 17.121094 19.21875 C 16.769531 19.082031 16.390625 19 16 19 C 14.347656 19 13 20.351562 13 22 L 13 25 L 3 25 C 2.449219 25 2 25.449219 2 26 L 2 44 C 2 44.550781 2.449219 45 3 45 L 9 45 L 9 46.167969 C 9 46.96875 9.308594 47.730469 9.878906 48.289062 L 10.710938 49.121094 C 10.902344 49.308594 11 49.558594 11 49.832031 L 11 52 L 10 52 C 9.449219 52 9 52.449219 9 53 L 9 61 C 9 61.550781 9.449219 62 10 62 L 30 62 C 30.550781 62 31 61.550781 31 61 L 31 53 C 31 52.449219 30.550781 52 30 52 L 29 52 L 29 49.832031 C 29 49.558594 29.097656 49.308594 29.289062 49.121094 L 30.121094 48.289062 C 30.691406 47.730469 31 46.96875 31 46.167969 L 31 45 L 37 45 C 37.550781 45 38 44.550781 38 44 L 38 26 C 38 25.449219 37.550781 25 37 25" fill="inherit"/><path d="M 27 36 L 29 36 C 29.550781 36 30 35.550781 30 35 C 30 34.449219 29.550781 34 29 34 L 27 34 C 26.449219 34 26 34.449219 26 35 C 26 35.550781 26.449219 36 27 36" fill="inherit"/><path d="M 20 13 C 20.550781 13 21 12.550781 21 12 L 21 10 C 21 9.449219 20.550781 9 20 9 C 19.449219 9 19 9.449219 19 10 L 19 12 C 19 12.550781 19.449219 13 20 13" fill="inherit"/><path d="M 14.632812 13.707031 C 14.820312 14.027344 15.15625 14.207031 15.5 14.207031 C 15.671875 14.207031 15.84375 14.164062 16 14.070312 C 16.476562 13.796875 16.644531 13.183594 16.367188 12.707031 L 15.367188 10.972656 C 15.089844 10.496094 14.476562 10.332031 14 10.605469 C 13.523438 10.882812 13.355469 11.496094 13.632812 11.972656 L 14.632812 13.707031" fill="inherit"/><path d="M 9.972656 16.367188 L 11.707031 17.367188 C 11.863281 17.457031 12.035156 17.5 12.207031 17.5 C 12.550781 17.5 12.886719 17.320312 13.074219 17 C 13.347656 16.523438 13.183594 15.910156 12.707031 15.632812 L 10.972656 14.632812 C 10.496094 14.359375 9.882812 14.519531 9.605469 15 C 9.332031 15.476562 9.496094 16.089844 9.972656 16.367188" fill="inherit"/><path d="M 24 14.070312 C 24.15625 14.164062 24.328125 14.207031 24.5 14.207031 C 24.84375 14.207031 25.179688 14.027344 25.367188 13.707031 L 26.367188 11.972656 C 26.644531 11.496094 26.476562 10.882812 26 10.605469 C 25.523438 10.332031 24.910156 10.496094 24.632812 10.972656 L 23.632812 12.707031 C 23.355469 13.183594 23.523438 13.796875 24 14.070312" fill="inherit"/><path d="M 27.792969 17.5 C 27.964844 17.5 28.136719 17.457031 28.292969 17.367188 L 30.027344 16.367188 C 30.503906 16.089844 30.667969 15.476562 30.394531 15 C 30.113281 14.519531 29.503906 14.359375 29.027344 14.632812 L 27.292969 15.632812 C 26.816406 15.910156 26.652344 16.523438 26.925781 17 C 27.113281 17.320312 27.449219 17.5 27.792969 17.5" fill="inherit"/><path d="M 26 56 L 25 56 C 24.449219 56 24 56.449219 24 57 C 24 57.550781 24.449219 58 25 58 L 26 58 C 26.550781 58 27 57.550781 27 57 C 27 56.449219 26.550781 56 26 56" fill="inherit"/><path d="M 42 10 L 42 4 L 60 4 L 60 10 Z M 60 37 C 60 37.550781 59.550781 38 59 38 C 58.449219 38 58 37.550781 58 37 L 58 30 C 58 29.449219 57.550781 29 57 29 C 56.449219 29 56 29.449219 56 30 L 56 38 C 56 38.550781 55.550781 39 55 39 C 54.449219 39 54 38.550781 54 38 L 54 30 C 54 29.449219 53.550781 29 53 29 C 52.449219 29 52 29.449219 52 30 L 52 40 C 52 40.550781 51.550781 41 51 41 C 50.449219 41 50 40.550781 50 40 L 50 30 C 50 29.449219 49.550781 29 49 29 C 48.449219 29 48 29.449219 48 30 L 48 38 C 48 38.550781 47.550781 39 47 39 C 46.449219 39 46 38.550781 46 38 L 46 25.898438 C 48.28125 25.441406 50 23.410156 50 21 L 50 20 C 50 19.449219 49.550781 19 49 19 C 48.449219 19 48 19.449219 48 20 L 48 21 C 48 22.648438 46.652344 24 45 24 C 44.449219 24 44 24.449219 44 25 L 44 30 L 43 30 C 42.449219 30 42 29.550781 42 29 L 42 17.832031 C 42 17.558594 42.097656 17.308594 42.289062 17.121094 L 43.121094 16.289062 C 43.691406 15.730469 44 14.96875 44 14.167969 L 44 12 L 58 12 L 58 14.167969 C 58 14.96875 58.308594 15.730469 58.878906 16.289062 L 59.710938 17.121094 C 59.902344 17.308594 60 17.558594 60 17.832031 Z M 61 12 C 61.550781 12 62 11.550781 62 11 L 62 3 C 62 2.449219 61.550781 2 61 2 L 41 2 C 40.449219 2 40 2.449219 40 3 L 40 11 C 40 11.550781 40.449219 12 41 12 L 42 12 L 42 14.167969 C 42 14.441406 41.902344 14.691406 41.710938 14.878906 L 40.878906 15.710938 C 40.308594 16.269531 40 17.03125 40 17.832031 L 40 29 C 40 30.648438 41.347656 32 43 32 L 44 32 L 44 38 C 44 39.648438 45.347656 41 47 41 C 47.390625 41 47.769531 40.917969 48.121094 40.78125 C 48.460938 42.050781 49.621094 43 51 43 C 52.378906 43 53.539062 42.050781 53.878906 40.78125 C 54.230469 40.917969 54.609375 41 55 41 C 56.070312 41 57 40.441406 57.53125 39.601562 C 57.96875 39.851562 58.460938 40 59 40 C 60.652344 40 62 38.648438 62 37 L 62 17.832031 C 62 17.03125 61.691406 16.269531 61.121094 15.710938 L 60.289062 14.878906 C 60.097656 14.691406 60 14.441406 60 14.167969 L 60 12 L 61 12" fill="inherit"/><path d="M 56 8 L 57 8 C 57.550781 8 58 7.550781 58 7 C 58 6.449219 57.550781 6 57 6 L 56 6 C 55.449219 6 55 6.449219 55 7 C 55 7.550781 55.449219 8 56 8" fill="inherit"/></g></svg>