<?xml version="1.0" encoding="UTF-8"?><svg xmlns="http://www.w3.org/2000/svg" xmlns:xlink="http://www.w3.org/1999/xlink" height="64.5" preserveAspectRatio="xMidYMid meet" version="1.0" viewBox="0.0 -0.0 80.0 64.5" width="80.0" zoomAndPan="magnify"><g data-name="15" id="change1_1"><path d="M26.073,43.569l-.7,1.773H54.715l-.69-1.77a14.935,14.935,0,0,0-27.952,0Zm24.681-.824H29.347a12.293,12.293,0,0,1,21.407,0ZM65.336,16.55h.02a8.329,8.329,0,0,0,8.36-8.17,8.039,8.039,0,0,0-2.34-5.81A8.4,8.4,0,0,0,65.427,0h-.01a8.281,8.281,0,0,0-5.99,14.12A8.339,8.339,0,0,0,65.336,16.55ZM61.156,4.29a5.853,5.853,0,0,1,4.17-1.76h.03a5.835,5.835,0,0,1,4.17,1.73,5.6,5.6,0,0,1,1.69,4,5.821,5.821,0,0,1-5.779,5.75,6.054,6.054,0,0,1-4.17-1.66,5.595,5.595,0,0,1-.111-8.06ZM14.638,16.936h.02a8.33,8.33,0,0,0,8.36-8.17,8.047,8.047,0,0,0-2.34-5.81,8.4,8.4,0,0,0-5.95-2.57h-.01a8.281,8.281,0,0,0-5.99,14.12A8.343,8.343,0,0,0,14.638,16.936Zm-4.18-12.26a5.85,5.85,0,0,1,4.17-1.76h.03a5.838,5.838,0,0,1,4.17,1.73,5.6,5.6,0,0,1,1.69,4,5.822,5.822,0,0,1-5.78,5.75,6.057,6.057,0,0,1-4.17-1.66,5.594,5.594,0,0,1-.11-8.06Zm68.888,24.8a14.934,14.934,0,0,0-27.952,0l-.7,1.773H80.036Zm-24.678-.827a12.294,12.294,0,0,1,21.408,0Zm-26.02,1.213A15.074,15.074,0,0,0,15.386,20.21,15.1,15.1,0,0,0,.7,29.861L0,31.634H29.338ZM3.969,29.037a12.294,12.294,0,0,1,21.408,0Zm36.046,1.607h.02a8.33,8.33,0,0,0,8.36-8.17,8.047,8.047,0,0,0-2.34-5.81,8.4,8.4,0,0,0-5.95-2.57H40.1a8.281,8.281,0,0,0-5.99,14.12A8.343,8.343,0,0,0,40.015,30.644Zm-4.18-12.26a5.85,5.85,0,0,1,4.17-1.76h.03a5.838,5.838,0,0,1,4.17,1.73,5.6,5.6,0,0,1,1.69,4,5.822,5.822,0,0,1-5.78,5.75,6.057,6.057,0,0,1-4.17-1.66,5.594,5.594,0,0,1-.11-8.06ZM72.067,41.166c-.008.034-.01.065-.02.1A27.538,27.538,0,0,1,61.715,55.288a40.449,40.449,0,0,1-33.027,6.436c-9.953-2.55-18.5-10.36-20.376-20.558h3.037a22.324,22.324,0,0,0,6.77,11.611c5.37,4.993,12.55,7.06,19.762,7.046V53.311h3V59.7a40.36,40.36,0,0,0,7.6-1.351c8.786-2.452,17.38-8.27,20.43-17.186Z"/></g></svg>