<?xml version="1.0" encoding="UTF-8"?><svg xmlns="http://www.w3.org/2000/svg" xmlns:xlink="http://www.w3.org/1999/xlink" height="518.4" preserveAspectRatio="xMidYMid meet" version="1.0" viewBox="0.0 0.0 512.0 518.4" width="512.0" zoomAndPan="magnify"><defs><clipPath id="a"><path d="M 0 0 L 512.03125 0 L 512.03125 518 L 0 518 Z M 0 0"/></clipPath><clipPath id="b"><path d="M 86 487 L 99 487 L 99 518.421875 L 86 518.421875 Z M 86 487"/></clipPath></defs><g><g clip-path="url(#a)" id="change1_1"><path d="M 499.0625 270.191406 C 497.78125 273.328125 495.300781 275.828125 492.171875 277.132812 L 487.28125 279.183594 L 469.703125 224.253906 L 469.460938 223.792969 C 466.503906 218.089844 460.675781 214.449219 454.253906 214.300781 C 445.417969 214.117188 437.105469 218.472656 432.230469 225.84375 L 432.121094 226.011719 C 427.109375 234.796875 425.21875 245.023438 426.761719 255.023438 C 428.28125 264.671875 432.410156 289.683594 434.082031 299.800781 C 431.78125 301.117188 429.570312 302.585938 427.460938 304.191406 C 427.457031 304.195312 427.449219 304.199219 427.441406 304.203125 L 324.34375 347.3125 L 312.433594 352.28125 L 305.582031 355.152344 C 305.3125 353.582031 304.847656 352.054688 304.191406 350.601562 L 277.511719 290.980469 C 287.351562 291.742188 298.761719 291.203125 307.332031 286.660156 C 313.542969 283.359375 318.859375 278.59375 322.820312 272.78125 C 323.261719 272.132812 323.691406 271.472656 324.09375 270.800781 C 326.402344 267 328.125 262.867188 329.203125 258.550781 C 329.253906 258.363281 329.300781 258.160156 329.332031 257.972656 C 329.34375 257.941406 329.351562 257.914062 329.351562 257.882812 C 331.707031 249.679688 331.585938 240.964844 329.003906 232.832031 C 321.75 209.746094 297.15625 196.90625 274.070312 204.160156 C 262.949219 207.652344 253.683594 215.429688 248.3125 225.773438 C 246.230469 221.132812 243.8125 215.710938 241.230469 209.941406 C 241.230469 209.933594 241.222656 209.933594 241.222656 209.921875 C 238.847656 204.234375 236.148438 198.285156 233.414062 192.449219 C 228.460938 181.371094 223.628906 170.574219 220.140625 162.78125 C 219.449219 161.230469 218.527344 159.785156 217.410156 158.503906 L 296.511719 125.863281 C 299.765625 124.492188 301.808594 121.226562 301.621094 117.703125 C 301.46875 114.203125 299.109375 111.1875 295.75 110.191406 C 278.945312 105.054688 269.488281 87.265625 274.625 70.460938 C 279.765625 53.652344 297.554688 44.195312 314.359375 49.332031 C 322.394531 51.789062 329.132812 57.324219 333.101562 64.730469 C 337.761719 73.53125 336.210938 88.601562 335.332031 94.683594 C 334.605469 99.65625 338.054688 104.277344 343.03125 105.003906 C 344.65625 105.238281 346.3125 105.03125 347.832031 104.402344 L 421 73.8125 L 499.019531 260.410156 C 500.339844 263.535156 500.355469 267.058594 499.0625 270.191406 Z M 467.980469 373.800781 C 467.515625 375.621094 466.746094 377.347656 465.710938 378.910156 L 465.601562 379.082031 C 465.5625 379.140625 462.570312 384.023438 459.070312 389.441406 C 458.671875 390.0625 458.253906 390.683594 457.84375 391.3125 L 338.511719 391.421875 C 338.171875 391.085938 337.84375 390.742188 337.523438 390.398438 L 337.507812 390.398438 C 329.761719 382.179688 325.191406 371.472656 324.621094 360.191406 L 411.183594 324 C 409.324219 327.441406 407.523438 330.992188 405.832031 334.609375 L 416.691406 339.699219 C 418.902344 334.992188 421.28125 330.390625 423.765625 326.03125 C 426.316406 321.648438 429.65625 317.78125 433.621094 314.621094 L 433.632812 314.621094 C 436.492188 312.265625 439.636719 310.277344 442.992188 308.710938 L 447.421875 306.902344 L 446.644531 302.179688 C 446.632812 302.089844 446.273438 299.941406 445.714844 296.550781 C 443.921875 285.75 440.074219 262.382812 438.621094 253.160156 C 437.484375 245.972656 438.808594 238.605469 442.371094 232.261719 C 444.960938 228.542969 449.195312 226.316406 453.722656 226.289062 C 455.71875 226.234375 457.585938 227.261719 458.613281 228.972656 L 476.171875 283.820312 L 479.84375 295.289062 L 484.863281 310.960938 Z M 464.210938 403.332031 L 464.640625 433.507812 C 463.964844 433.980469 463.152344 434.21875 462.328125 434.1875 L 332.378906 435.214844 C 331.523438 435.273438 330.671875 435.027344 329.980469 434.523438 L 329.535156 403.449219 Z M 289.53125 365.242188 C 273.101562 372.601562 245.300781 385.042969 228.183594 392.710938 C 234.183594 369.265625 220.039062 345.394531 196.597656 339.394531 C 173.148438 333.394531 149.277344 347.535156 143.277344 370.980469 C 141.179688 379.191406 141.503906 387.832031 144.210938 395.863281 C 147.59375 405.8125 156.652344 414.632812 164.941406 421.003906 L 97.113281 451.351562 L 13.121094 263.683594 C 10.242188 257.234375 13.128906 249.671875 19.574219 246.78125 L 24.863281 244.410156 L 44.28125 305.070312 L 44.523438 305.542969 C 47.484375 311.246094 53.316406 314.882812 59.742188 315.03125 C 60.0625 315.042969 60.382812 315.050781 60.703125 315.050781 C 69.199219 314.898438 77.074219 310.570312 81.761719 303.480469 L 81.863281 303.3125 C 86.886719 294.53125 88.777344 284.308594 87.222656 274.3125 C 85.710938 264.660156 81.582031 239.640625 79.902344 229.53125 C 87.886719 225.035156 94.652344 218.664062 99.613281 210.960938 L 189.421875 170.773438 L 201.121094 165.53125 L 202.242188 165.03125 C 202.914062 164.726562 203.644531 164.570312 204.382812 164.570312 C 205.023438 164.570312 205.664062 164.6875 206.261719 164.921875 C 207.566406 165.417969 208.621094 166.410156 209.191406 167.683594 C 214.472656 179.472656 222.820312 198.132812 230.023438 214.242188 C 230.03125 214.28125 230.050781 214.316406 230.070312 214.351562 C 234.261719 224.390625 238.0625 233.503906 240.542969 239.453125 C 242.324219 243.714844 247.222656 245.726562 251.484375 243.945312 C 253.773438 242.988281 255.519531 241.0625 256.253906 238.691406 C 260.269531 221.589844 277.390625 210.980469 294.496094 214.996094 C 311.601562 219.015625 322.207031 236.136719 318.191406 253.238281 C 316.164062 261.859375 310.640625 269.246094 302.941406 273.621094 C 294.261719 278.503906 279.121094 277.320312 273.023438 276.59375 C 269.769531 276.203125 266.558594 277.589844 264.613281 280.222656 C 264.566406 280.277344 264.527344 280.339844 264.492188 280.402344 C 262.648438 283.023438 262.324219 286.417969 263.632812 289.34375 L 293.242188 355.503906 C 294.898438 359.214844 293.238281 363.570312 289.53125 365.242188 Z M 182.140625 127.054688 L 181.980469 127.054688 L 181.863281 126.863281 L 52.191406 127.902344 C 51.335938 127.964844 50.480469 127.71875 49.792969 127.199219 L 49.773438 126 L 49.351562 95.832031 C 50.027344 95.355469 50.839844 95.117188 51.664062 95.152344 L 181.613281 94.117188 C 182.46875 94.0625 183.320312 94.308594 184.011719 94.816406 L 184.453125 126.375 C 183.777344 126.847656 182.96875 127.085938 182.144531 127.054688 Z M 107.351562 194.34375 L 91.191406 201.582031 C 90.863281 202.160156 90.542969 202.730469 90.222656 203.292969 C 83.363281 215.34375 71.09375 220.570312 70.992188 220.613281 L 66.5625 222.433594 L 67.074219 225.523438 L 67.34375 227.152344 C 67.410156 227.523438 73.472656 264.050781 75.363281 276.171875 C 76.507812 283.355469 75.191406 290.71875 71.621094 297.0625 C 69.042969 300.789062 64.804688 303.023438 60.273438 303.042969 C 58.277344 303.097656 56.402344 302.074219 55.371094 300.363281 L 35.882812 239.480469 L 32.203125 227.972656 L 29.121094 218.363281 L 46.003906 155.53125 C 46.472656 153.714844 47.242188 151.984375 48.28125 150.421875 L 48.382812 150.253906 C 48.421875 150.191406 51.421875 145.300781 54.921875 139.882812 L 176.453125 138.925781 L 176.464844 138.925781 C 181.675781 144.453125 185.488281 151.144531 187.59375 158.441406 Z M 510.09375 255.78125 L 427.441406 58.113281 L 347.8125 91.402344 C 348.742188 82.039062 348.804688 68.722656 343.703125 59.101562 C 332.292969 37.757812 305.742188 29.707031 284.402344 41.117188 C 263.058594 52.527344 255.007812 79.074219 266.417969 100.417969 C 270.410156 107.886719 276.484375 114.039062 283.902344 118.132812 L 199.875 153.171875 C 199.46875 153.285156 199.058594 153.402344 198.65625 153.546875 C 196.75 147.542969 193.898438 141.878906 190.210938 136.769531 C 191.265625 136.171875 192.234375 135.4375 193.089844 134.574219 C 195.207031 132.503906 196.417969 129.671875 196.449219 126.703125 L 196.449219 126.554688 L 195.996094 94.316406 C 195.996094 94.09375 195.96875 93.875 195.949219 93.65625 L 202.792969 93.601562 C 206.105469 93.574219 208.769531 90.867188 208.746094 87.554688 C 208.746094 87.542969 208.742188 87.535156 208.742188 87.523438 L 207.617188 0 L 195.617188 0.15625 L 196.667969 81.65625 L 36.359375 82.9375 L 35.308594 0 L 23.308594 0.152344 L 24.4375 89.0625 C 24.476562 92.347656 27.152344 94.984375 30.4375 94.984375 L 30.484375 94.984375 L 37.371094 94.929688 C 37.359375 95.167969 37.339844 95.402344 37.34375 95.644531 L 37.804688 127.882812 C 37.898438 131.46875 39.671875 134.800781 42.59375 136.882812 C 40.285156 140.515625 38.53125 143.363281 38.203125 143.902344 C 36.464844 146.554688 35.175781 149.472656 34.382812 152.542969 L 34.199219 153.265625 L 34.0625 153.230469 L 16.625 218.671875 L 21.183594 232.910156 L 14.675781 235.820312 C 2.179688 241.40625 -3.421875 256.0625 2.164062 268.558594 C 2.167969 268.566406 2.171875 268.574219 2.175781 268.582031 L 91.0625 467.210938 L 174.414062 429.914062 C 178.996094 427.851562 181.039062 422.464844 178.980469 417.878906 C 178.308594 416.386719 177.246094 415.101562 175.902344 414.160156 C 165.222656 406.660156 157.8125 398.59375 155.574219 392.003906 C 149.980469 375.347656 158.945312 357.308594 175.601562 351.714844 C 192.257812 346.117188 210.292969 355.085938 215.890625 371.738281 C 218.554688 379.667969 217.988281 388.328125 214.3125 395.84375 C 212.253906 399.972656 213.933594 404.992188 218.0625 407.054688 C 220.304688 408.171875 222.929688 408.226562 225.214844 407.203125 C 240.144531 400.503906 275.132812 384.832031 294.433594 376.191406 C 297.699219 374.738281 300.496094 372.398438 302.503906 369.441406 L 313.003906 365.050781 C 314.210938 374.984375 317.917969 384.445312 323.78125 392.550781 C 322.726562 393.152344 321.753906 393.894531 320.894531 394.753906 C 318.734375 396.859375 317.523438 399.753906 317.535156 402.773438 L 317.984375 435.015625 C 317.984375 435.234375 318.015625 435.449219 318.03125 435.667969 L 311.199219 435.722656 C 307.886719 435.75 305.21875 438.457031 305.246094 441.773438 C 305.246094 441.785156 305.246094 441.800781 305.246094 441.8125 L 306.375 517.339844 L 318.375 517.164062 L 317.335938 447.675781 L 477.644531 446.390625 L 478.683594 517.339844 L 490.683594 517.164062 L 489.558594 440.257812 C 489.507812 436.976562 486.835938 434.34375 483.558594 434.34375 L 483.507812 434.34375 L 476.617188 434.398438 C 476.628906 434.164062 476.648438 433.929688 476.644531 433.699219 L 476.195312 401.457031 C 476.101562 397.871094 474.324219 394.535156 471.394531 392.464844 C 473.703125 388.820312 475.457031 385.972656 475.785156 385.4375 C 477.527344 382.785156 478.820312 379.859375 479.605469 376.785156 L 479.785156 376.066406 L 479.933594 376.105469 L 497.363281 310.65625 L 490.953125 290.644531 L 496.796875 288.207031 C 509.414062 282.9375 515.375 268.4375 510.109375 255.816406 C 510.105469 255.808594 510.101562 255.796875 510.097656 255.785156 L 510.09375 255.78125" fill="#100f0d"/></g><g id="change1_3"><path d="M 123.480469 475.667969 L 134.144531 470.167969 L 148 497.046875 L 137.335938 502.546875 L 123.480469 475.667969" fill="#100f0d"/></g><g id="change1_4"><path d="M 37.101562 497.046875 L 50.957031 470.167969 L 61.625 475.667969 L 47.769531 502.546875 L 37.101562 497.046875" fill="#100f0d"/></g><g clip-path="url(#b)" id="change1_2"><path d="M 86.171875 518.117188 L 86.933594 487.886719 L 98.929688 488.1875 L 98.167969 518.421875 L 86.171875 518.117188" fill="#100f0d"/></g><g id="change1_5"><path d="M 377.394531 22.625 L 388.0625 17.128906 L 401.917969 44.007812 L 391.25 49.503906 L 377.394531 22.625" fill="#100f0d"/></g><g id="change1_6"><path d="M 463.773438 44.003906 L 477.628906 17.125 L 488.292969 22.625 L 474.4375 49.503906 L 463.773438 44.003906" fill="#100f0d"/></g><g id="change1_7"><path d="M 426.46875 31.484375 L 427.230469 1.253906 L 439.226562 1.554688 L 438.464844 31.785156 L 426.46875 31.484375" fill="#100f0d"/></g></g></svg>